<svg xmlns="http://www.w3.org/2000/svg" xmlns:xlink="http://www.w3.org/1999/xlink" width="48px" height="48px" viewBox="0 0 48 48" version="1.1">
<g id="surface1">
<path style=" stroke:none;fill-rule:nonzero;fill:rgb(0%,0%,0%);fill-opacity:1;" d="M 10.25 7.832031 C 9.953125 7.902344 9.625 8.101562 9.304688 8.394531 C 8.914062 8.761719 8.652344 9.164062 8.507812 9.625 L 8.390625 9.988281 L 8.390625 19.1875 C 8.390625 29.289062 8.375 28.660156 8.675781 29.257812 C 8.84375 29.59375 9.195312 29.980469 9.515625 30.1875 C 9.632812 30.261719 9.898438 30.375 10.105469 30.429688 L 10.476562 30.539062 L 15.402344 30.554688 L 20.324219 30.566406 L 20.195312 31.070312 C 20.085938 31.492188 19.765625 33.230469 19.726562 33.671875 L 19.710938 33.796875 L 18.777344 33.820312 C 17.582031 33.847656 17.394531 33.886719 17.132812 34.148438 C 16.808594 34.472656 16.757812 34.996094 17.019531 35.277344 L 17.128906 35.390625 L 23.902344 35.382812 C 30.117188 35.367188 30.695312 35.363281 30.851562 35.289062 C 31.355469 35.0625 31.234375 34.332031 30.632812 33.960938 L 30.40625 33.820312 L 29.375 33.816406 C 28.378906 33.816406 28.34375 33.8125 28.308594 33.71875 C 28.289062 33.664062 28.195312 33.167969 28.101562 32.621094 C 27.941406 31.6875 27.792969 30.914062 27.722656 30.671875 L 27.695312 30.566406 L 32.535156 30.546875 C 36.851562 30.535156 37.414062 30.523438 37.703125 30.453125 C 38.484375 30.265625 39.09375 29.789062 39.414062 29.125 L 39.585938 28.757812 L 39.601562 19.367188 C 39.609375 9.117188 39.625 9.679688 39.347656 9.132812 C 39.179688 8.796875 38.726562 8.339844 38.398438 8.164062 C 38.253906 8.085938 37.972656 7.972656 37.78125 7.914062 L 37.429688 7.804688 L 23.929688 7.796875 C 16.15625 7.796875 10.355469 7.808594 10.25 7.832031 Z M 37.242188 9.242188 C 37.636719 9.324219 37.914062 9.523438 38.085938 9.863281 L 38.226562 10.144531 L 38.226562 18.683594 C 38.226562 25.457031 38.210938 27.242188 38.171875 27.289062 C 38.136719 27.320312 38.109375 27.417969 38.109375 27.5 C 38.109375 27.75 37.972656 28.351562 37.855469 28.613281 C 37.589844 29.207031 37.023438 29.734375 36.398438 29.960938 C 35.96875 30.121094 35.304688 30.109375 34.804688 29.933594 C 34.0625 29.679688 33.535156 29.25 32.417969 28.015625 C 31.773438 27.300781 31.996094 27.351562 29.53125 27.351562 C 27.558594 27.351562 27.4375 27.355469 27.257812 27.441406 C 27.0625 27.539062 26.539062 28.046875 25.789062 28.867188 C 24.671875 30.089844 23.492188 30.425781 22.332031 29.859375 C 21.625 29.515625 21.101562 28.808594 20.933594 27.976562 C 20.890625 27.777344 20.859375 27.546875 20.859375 27.46875 L 20.859375 27.328125 L 9.980469 27.328125 L 9.75 27.097656 L 9.757812 18.648438 C 9.773438 10.648438 9.777344 10.1875 9.859375 9.984375 C 10.003906 9.617188 10.34375 9.335938 10.765625 9.238281 C 11.054688 9.171875 36.910156 9.171875 37.242188 9.242188 Z M 37.242188 9.242188 " data-index="0"></path>
<path style=" stroke:none;fill-rule:nonzero;fill:rgb(0%,0%,0%);fill-opacity:1;" d="M 22.960938 10.484375 C 22.867188 10.496094 22.765625 10.53125 22.738281 10.5625 C 22.714844 10.59375 22.609375 10.949219 22.503906 11.359375 C 22.402344 11.765625 22.292969 12.136719 22.269531 12.179688 C 22.242188 12.234375 22.117188 12.285156 21.90625 12.328125 C 21.730469 12.359375 21.425781 12.46875 21.238281 12.570312 L 20.886719 12.75 L 20.722656 12.589844 C 20.398438 12.289062 19.65625 11.765625 19.542969 11.765625 C 19.457031 11.765625 19.222656 11.976562 18.59375 12.617188 C 18.132812 13.09375 17.722656 13.523438 17.6875 13.578125 C 17.644531 13.644531 17.625 13.734375 17.644531 13.800781 C 17.65625 13.859375 17.867188 14.175781 18.109375 14.492188 L 18.539062 15.074219 L 18.367188 15.378906 C 18.265625 15.542969 18.144531 15.824219 18.089844 16.007812 C 17.96875 16.414062 17.882812 16.578125 17.769531 16.636719 C 17.722656 16.664062 17.40625 16.730469 17.0625 16.78125 C 16.71875 16.832031 16.402344 16.898438 16.355469 16.925781 C 16.171875 17.019531 16.152344 17.148438 16.132812 18.328125 C 16.117188 19.398438 16.121094 19.484375 16.199219 19.585938 C 16.273438 19.671875 16.390625 19.707031 16.988281 19.804688 C 17.804688 19.9375 17.832031 19.953125 18.023438 20.453125 C 18.09375 20.640625 18.242188 20.9375 18.355469 21.125 L 18.558594 21.464844 L 18.4375 21.640625 C 18.371094 21.742188 18.167969 22.027344 17.992188 22.28125 C 17.8125 22.53125 17.652344 22.804688 17.640625 22.890625 C 17.609375 23.0625 17.503906 22.945312 18.757812 24.109375 C 19.140625 24.464844 19.476562 24.75 19.507812 24.75 C 19.59375 24.75 19.714844 24.679688 20.441406 24.21875 L 21.078125 23.816406 L 21.257812 23.878906 C 21.371094 23.921875 21.453125 23.984375 21.484375 24.050781 C 21.515625 24.140625 21.53125 24.148438 21.558594 24.09375 C 21.609375 24 22.125 22.199219 22.125 22.117188 C 22.125 22.078125 21.960938 21.945312 21.765625 21.820312 C 20.816406 21.214844 20.117188 20.234375 19.894531 19.179688 C 19.808594 18.765625 19.808594 17.984375 19.902344 17.539062 C 20.160156 16.292969 20.996094 15.234375 22.195312 14.644531 C 22.828125 14.328125 23.242188 14.242188 24 14.234375 C 24.6875 14.230469 25.105469 14.3125 25.664062 14.554688 C 26.363281 14.863281 27.191406 15.578125 27.554688 16.1875 C 28.03125 16.976562 28.195312 17.648438 28.164062 18.636719 C 28.140625 19.285156 28.144531 19.308594 28.238281 19.339844 C 28.292969 19.355469 28.867188 19.382812 29.515625 19.390625 C 30.695312 19.414062 31.304688 19.375 31.679688 19.25 L 31.851562 19.195312 L 31.851562 18.234375 C 31.851562 17.703125 31.832031 17.210938 31.8125 17.140625 C 31.765625 16.964844 31.597656 16.902344 30.890625 16.804688 C 30.566406 16.761719 30.257812 16.695312 30.203125 16.660156 C 30.132812 16.617188 30.0625 16.480469 29.996094 16.25 C 29.875 15.847656 29.710938 15.511719 29.515625 15.265625 L 29.375 15.089844 L 29.515625 14.9375 C 29.695312 14.746094 30.203125 14.070312 30.332031 13.855469 C 30.421875 13.703125 30.425781 13.679688 30.359375 13.578125 C 30.324219 13.523438 29.925781 13.101562 29.480469 12.640625 C 28.773438 11.921875 28.644531 11.808594 28.519531 11.8125 C 28.414062 11.8125 28.199219 11.9375 27.71875 12.277344 L 27.0625 12.734375 L 26.808594 12.582031 C 26.5 12.382812 26.089844 12.226562 25.875 12.214844 L 25.714844 12.210938 L 25.496094 11.414062 C 25.332031 10.828125 25.246094 10.597656 25.171875 10.539062 C 25.078125 10.460938 24.960938 10.453125 24.097656 10.460938 C 23.570312 10.46875 23.054688 10.476562 22.960938 10.484375 Z M 22.960938 10.484375 " data-index="1"></path>
<path style=" stroke:none;fill-rule:nonzero;fill:rgb(0%,0%,0%);fill-opacity:1;" d="M 23.34375 16.167969 C 22.785156 16.34375 22.332031 16.691406 22.035156 17.152344 C 21.613281 17.804688 21.566406 18.636719 21.914062 19.335938 C 22.070312 19.660156 22.402344 20.0625 22.648438 20.222656 L 22.765625 20.300781 L 23.136719 19.917969 C 23.957031 19.074219 24.953125 18.625 25.898438 18.664062 C 26.296875 18.679688 26.296875 18.683594 26.296875 18.308594 C 26.296875 17.328125 25.554688 16.410156 24.558594 16.148438 C 24.214844 16.054688 23.65625 16.0625 23.34375 16.167969 Z M 23.34375 16.167969 " data-index="2"></path>
<path style=" stroke:none;fill-rule:nonzero;fill:rgb(0%,0%,0%);fill-opacity:1;" d="M 25.265625 19.785156 C 24.851562 19.851562 24.265625 20.164062 23.933594 20.503906 C 23.535156 20.902344 23.320312 21.347656 22.875 22.671875 C 22.46875 23.902344 22.148438 25.140625 21.960938 26.21875 C 21.726562 27.589844 21.84375 28.238281 22.429688 28.777344 C 22.996094 29.296875 23.804688 29.335938 24.53125 28.859375 C 24.929688 28.601562 25.246094 28.3125 25.667969 27.816406 C 26.441406 26.90625 26.796875 26.597656 27.273438 26.429688 C 27.511719 26.34375 27.707031 26.328125 29.179688 26.292969 C 31.234375 26.246094 31.632812 26.289062 32.132812 26.609375 C 32.234375 26.675781 32.765625 27.179688 33.304688 27.722656 C 34.339844 28.765625 34.621094 28.984375 35.15625 29.140625 C 36.167969 29.453125 37.144531 28.796875 37.316406 27.6875 C 37.375 27.328125 37.332031 26.859375 37.144531 25.875 C 36.9375 24.78125 36.289062 22.367188 36 21.609375 C 35.71875 20.886719 35.132812 20.230469 34.5 19.925781 C 34.15625 19.761719 34.128906 19.757812 33.609375 19.757812 C 33.074219 19.757812 33.0625 19.761719 32.296875 20.019531 C 31.871094 20.164062 31.320312 20.320312 31.078125 20.367188 C 30.214844 20.515625 28.398438 20.503906 27.710938 20.339844 C 27.589844 20.304688 27.234375 20.179688 26.925781 20.058594 C 26.417969 19.855469 25.894531 19.730469 25.617188 19.738281 C 25.566406 19.742188 25.40625 19.761719 25.265625 19.785156 Z M 33.78125 21.488281 C 34.007812 21.722656 34.039062 21.886719 33.914062 22.125 C 33.835938 22.28125 33.535156 22.453125 33.351562 22.453125 C 33.097656 22.453125 32.757812 22.167969 32.691406 21.90625 C 32.644531 21.734375 32.78125 21.511719 33.015625 21.355469 C 33.300781 21.167969 33.519531 21.207031 33.78125 21.488281 Z M 26.390625 22.289062 L 26.390625 22.875 L 27.46875 22.875 L 27.585938 23.132812 L 27.699219 23.390625 L 27.585938 23.65625 L 27.476562 23.929688 L 26.933594 23.945312 L 26.390625 23.957031 L 26.390625 25.109375 L 26.117188 25.171875 C 25.917969 25.214844 25.800781 25.214844 25.664062 25.175781 C 25.335938 25.085938 25.335938 25.082031 25.351562 24.589844 C 25.378906 23.921875 25.40625 23.953125 24.753906 23.953125 L 24.207031 23.953125 L 24.125 23.703125 C 24.027344 23.386719 24.027344 23.351562 24.140625 23.089844 L 24.230469 22.875 L 25.355469 22.875 L 25.367188 22.328125 L 25.382812 21.773438 L 25.523438 21.746094 C 25.601562 21.726562 25.828125 21.710938 26.03125 21.707031 L 26.390625 21.703125 Z M 35.136719 22.726562 C 35.289062 22.84375 35.34375 22.984375 35.34375 23.230469 C 35.34375 23.820312 34.773438 24.101562 34.410156 23.695312 C 34.152344 23.398438 34.164062 23.054688 34.433594 22.796875 C 34.574219 22.664062 34.636719 22.640625 34.820312 22.640625 C 34.953125 22.640625 35.078125 22.671875 35.136719 22.726562 Z M 32.222656 22.851562 C 32.484375 23.113281 32.503906 23.4375 32.273438 23.710938 C 32.03125 24 31.695312 23.929688 31.449219 23.539062 C 31.257812 23.234375 31.269531 23.089844 31.5 22.867188 C 31.761719 22.621094 31.988281 22.617188 32.222656 22.851562 Z M 33.730469 24.167969 C 33.953125 24.332031 34.050781 24.570312 33.984375 24.773438 C 33.867188 25.128906 33.367188 25.320312 33.054688 25.128906 C 32.703125 24.910156 32.625 24.535156 32.863281 24.257812 C 33.109375 23.980469 33.441406 23.949219 33.730469 24.167969 Z M 33.730469 24.167969 " data-index="3"></path>
</g>
</svg>