<?xml version="1.0" encoding="UTF-8"?>
<svg version="1.1" xmlns="http://www.w3.org/2000/svg" width="500" height="500">
<path d="M0 0 C2.4106555 2.72748451 3.70781379 5.0210918 4.4296875 8.546875 C5.59242188 8.70542969 6.75515625 8.86398438 7.953125 9.02734375 C25.84110629 11.58115416 41.58204346 15.72827913 57.4296875 24.546875 C58.88955078 25.34738281 58.88955078 25.34738281 60.37890625 26.1640625 C61.05566406 26.62039062 61.73242188 27.07671875 62.4296875 27.546875 C62.4296875 28.206875 62.4296875 28.866875 62.4296875 29.546875 C63.0896875 29.546875 63.7496875 29.546875 64.4296875 29.546875 C66.0859375 31.55859375 66.0859375 31.55859375 67.9296875 34.234375 C68.538125 35.10449219 69.1465625 35.97460938 69.7734375 36.87109375 C72.59376868 41.42752501 73.74262793 45.5809878 74.5546875 50.859375 C74.72226562 51.92800781 74.88984375 52.99664062 75.0625 54.09765625 C75.18367188 54.90589844 75.30484375 55.71414062 75.4296875 56.546875 C76.53376953 56.81951172 76.53376953 56.81951172 77.66015625 57.09765625 C86.0096921 59.24846139 90.73824236 60.90315976 95.4140625 68.31640625 C98.19185274 74.41686097 97.61299971 81.35542434 97.6171875 87.921875 C97.62943359 88.92476563 97.64167969 89.92765625 97.65429688 90.9609375 C97.66861514 98.25370745 97.42656877 104.58007997 93.2421875 110.796875 C87.34647351 116.56157312 82.477927 118.18187548 74.4296875 118.546875 C74.42582031 119.42085937 74.42582031 119.42085937 74.421875 120.3125 C73.94282794 130.46829763 69.53233712 139.7878456 62 146.67578125 C46.10862508 158.24412257 23.9739296 164.546875 4.4296875 164.546875 C4.4296875 165.206875 4.4296875 165.866875 4.4296875 166.546875 C5.10386719 166.66160156 5.77804687 166.77632812 6.47265625 166.89453125 C16.51978436 169.11100469 25.74177896 173.36999612 34.4296875 178.796875 C35.13005127 179.23314209 35.83041504 179.66940918 36.55200195 180.11889648 C38.22017652 181.19889625 39.83175636 182.36542591 41.4296875 183.546875 C41.4296875 184.206875 41.4296875 184.866875 41.4296875 185.546875 C42.25210938 185.50046875 43.07453125 185.4540625 43.921875 185.40625 C57.71580365 184.96025693 65.82358462 189.52488019 75.76953125 198.70703125 C79.77588656 202.58664773 79.77588656 202.58664773 81.4296875 204.546875 C81.4296875 205.206875 81.4296875 205.866875 81.4296875 206.546875 C82.0896875 206.546875 82.7496875 206.546875 83.4296875 206.546875 C101.72191109 231.62353832 118.54226095 272.29938068 114.4296875 303.546875 C112.40163216 309.88125564 109.48508584 315.16043296 104.4296875 319.546875 C97.56151552 322.94922267 90.97628951 323.47854273 83.6796875 321.171875 C80.85020911 320.19244017 78.96819736 319.23921491 76.4296875 317.546875 C76.4296875 316.886875 76.4296875 316.226875 76.4296875 315.546875 C75.7696875 315.546875 75.1096875 315.546875 74.4296875 315.546875 C68.1855818 308.88649559 65.75990131 301.03854385 63.9296875 292.296875 C63.7231958 291.35118652 63.5167041 290.40549805 63.30395508 289.43115234 C61.22585987 279.82803905 59.30221058 270.19193802 57.4296875 260.546875 C55.88346658 264.03943542 54.93451655 267.48589539 54.13769531 271.21728516 C47.90939701 300.34686366 32.91689766 327.05487191 8.03125 344.19921875 C-10.44754862 355.95029943 -32.83561659 358.53560324 -54.2421875 354.89453125 C-73.91943259 350.05824633 -93.67054349 336.9146388 -104.5703125 319.546875 C-104.5703125 318.886875 -104.5703125 318.226875 -104.5703125 317.546875 C-105.2303125 317.546875 -105.8903125 317.546875 -106.5703125 317.546875 C-115.8460593 300.73117918 -122.72266926 284.72592406 -126.80859375 265.9609375 C-127.50072003 262.5855595 -127.50072003 262.5855595 -128.5703125 259.546875 C-128.7561792 260.57458008 -128.9420459 261.60228516 -129.13354492 262.66113281 C-129.83751912 266.53286228 -130.55943857 270.40107703 -131.28637695 274.26855469 C-131.5964964 275.93173284 -131.90196788 277.59578554 -132.20239258 279.26074219 C-134.58267885 292.4255867 -137.68432409 304.46386427 -145.5703125 315.546875 C-146.2303125 315.546875 -146.8903125 315.546875 -147.5703125 315.546875 C-147.5703125 316.206875 -147.5703125 316.866875 -147.5703125 317.546875 C-154.74648125 321.90885993 -161.17229697 323.85528718 -169.65234375 322.12109375 C-176.15982422 320.09294974 -179.34972365 316.16050406 -182.828125 310.5 C-192.53945495 290.80569451 -181.09064789 264.04156633 -174.66943359 245.00561523 C-171.66668858 236.44644828 -168.14517197 228.38056699 -163.5703125 220.546875 C-163.01802979 219.59893066 -163.01802979 219.59893066 -162.45458984 218.63183594 C-153.48521882 203.57786832 -142.60091025 191.22374092 -125.5703125 185.546875 C-123.34212809 185.47750438 -121.11196726 185.46230416 -118.8828125 185.484375 C-117.70332031 185.49339844 -116.52382812 185.50242188 -115.30859375 185.51171875 C-114.40496094 185.52332031 -113.50132812 185.53492188 -112.5703125 185.546875 C-112.5703125 184.886875 -112.5703125 184.226875 -112.5703125 183.546875 C-102.70789751 175.00746689 -89.77532479 170.61521243 -77.5703125 166.546875 C-82.34962912 164.77536174 -86.93615107 163.95398882 -91.9453125 163.234375 C-100.82539416 161.84873995 -109.11162406 159.55440867 -117.5703125 156.546875 C-118.67503906 156.155 -119.77976562 155.763125 -120.91796875 155.359375 C-131.11124462 151.4418581 -140.58289284 145.11274821 -145.7890625 135.234375 C-148.33783852 129.40860124 -149.30093721 123.87719421 -149.5703125 117.546875 C-150.5603125 117.505625 -151.5503125 117.464375 -152.5703125 117.421875 C-158.50571919 116.57740657 -162.98292996 112.64631643 -166.5078125 107.984375 C-169.24355755 101.70825401 -168.78909742 95.01592019 -168.8203125 88.296875 C-168.8409375 87.20246094 -168.8615625 86.10804688 -168.8828125 84.98046875 C-168.91914285 77.39650803 -168.58914579 70.32988994 -163.703125 64.20703125 C-155.33314869 57.546875 -155.33314869 57.546875 -149.5703125 57.546875 C-149.53164062 56.52980469 -149.53164062 56.52980469 -149.4921875 55.4921875 C-148.73956971 43.14241376 -144.77415192 34.93518435 -135.5703125 26.546875 C-120.05480554 14.64456829 -94.89054968 8.2074272 -75.5703125 8.546875 C-75.3640625 7.66 -75.1578125 6.773125 -74.9453125 5.859375 C-72.66379819 0.36299962 -68.63900619 -2.1538918 -63.4453125 -4.640625 C-46.95251099 -10.73256069 -13.83653661 -12.80395925 0 0 Z " fill="#D7DBE3" transform="translate(285.5703125,51.453125)"/>
<path d="M0 0 C1.06737396 -0.00167175 2.13474792 -0.00334351 3.23446655 -0.00506592 C18.93846409 -0.00654112 34.25341625 0.48363949 49.75 3.25 C51.09239746 3.47224243 51.09239746 3.47224243 52.46191406 3.69897461 C58.73361031 4.77003291 64.78391552 6.2313498 70.875 8.0625 C71.70386719 8.29775391 72.53273438 8.53300781 73.38671875 8.77539062 C84.39313998 12.05664766 92.8586742 17.09254172 98.75 27.25 C101.12397712 33.63246094 101.10552028 39.81941138 101.15625 46.578125 C101.16765015 47.76291443 101.17905029 48.94770386 101.1907959 50.168396 C101.20964 52.6696824 101.22274159 55.17101783 101.23046875 57.67236328 C101.24986669 61.47387462 101.31195367 65.27321489 101.375 69.07421875 C101.38806373 71.51300809 101.39856323 73.95181278 101.40625 76.390625 C101.4309436 77.51494934 101.45563721 78.63927368 101.4810791 79.79766846 C101.4262591 89.64080144 98.13491965 97.16488832 91.125 104.125 C76.18121411 115.87853947 49.43780785 119.86077586 30.921875 121.0390625 C28.57044143 121.18594175 28.57044143 121.18594175 25.75 122.25 C24.3893847 122.32318452 23.02526673 122.34003028 21.6628418 122.31933594 C20.83786194 122.30878174 20.01288208 122.29822754 19.16290283 122.28735352 C18.26738708 122.26987061 17.37187134 122.2523877 16.44921875 122.234375 C15.51333923 122.21914795 14.57745972 122.2039209 13.61322021 122.18823242 C10.55440962 122.13401049 7.49601513 122.06884758 4.4375 122 C3.39723663 121.97699829 2.35697327 121.95399658 1.28518677 121.93029785 C-71.55182847 120.23113963 -71.55182847 120.23113963 -91.25 102.25 C-96.69854987 96.21241771 -99.34201564 91.00384921 -99.42700195 82.90576172 C-99.43983719 81.8371994 -99.45267242 80.76863708 -99.46589661 79.66769409 C-99.47328354 78.51665192 -99.48067047 77.36560974 -99.48828125 76.1796875 C-99.496353 74.98828156 -99.50442474 73.79687561 -99.51274109 72.56936646 C-99.52657142 70.04593354 -99.53729827 67.52248199 -99.54516602 64.99902344 C-99.56234142 61.16044102 -99.60623476 57.32272832 -99.65039062 53.484375 C-99.66052135 51.02865215 -99.66903626 48.57292199 -99.67578125 46.1171875 C-99.69328934 44.97829071 -99.71079742 43.83939392 -99.72883606 42.66598511 C-99.70609255 34.21189955 -97.92051466 27.7693325 -93.625 20.5 C-70.79013579 -1.13302925 -29.16842457 0.02407675 0 0 Z " fill="#152D3C" transform="translate(249.25,85.75)"/>
<path d="M0 0 C4.80480126 0.67462108 9.31773506 1.93769262 13.9375 3.375 C20.97425432 5.51756184 27.98315315 7.1146033 35.21875 8.421875 C38 9 38 9 39 10 C40.32781878 10.20604085 41.66295895 10.3662959 43 10.5 C46.88888889 10.88888889 46.88888889 10.88888889 48 12 C48.32097751 14.31817089 48.51220956 16.63779357 48.71875 18.96875 C48.79065837 20.99180593 48.79065837 20.99180593 50 22 C52.01289258 22.37834104 54.0361242 22.70220884 56.0625 23 C57.71958984 23.2475 57.71958984 23.2475 59.41015625 23.5 C60.59480469 23.665 61.77945313 23.83 63 24 C64.84416504 24.25885986 64.84416504 24.25885986 66.72558594 24.52294922 C70.81178157 25.02882088 74.86615695 25.14499713 78.98046875 25.1328125 C79.71517899 25.13376923 80.44988922 25.13472595 81.2068634 25.13571167 C82.75224901 25.13638748 84.29763755 25.13457533 85.84301758 25.13037109 C88.16429297 25.12505317 90.48537145 25.13031661 92.80664062 25.13671875 C111.13794719 25.43086189 111.13794719 25.43086189 129 22 C130.14814997 19.70370006 130.30769809 17.92301914 130.5625 15.375 C130.64628906 14.55773437 130.73007812 13.74046875 130.81640625 12.8984375 C130.87699219 12.27195312 130.93757812 11.64546875 131 11 C131.56170898 10.87995605 132.12341797 10.75991211 132.70214844 10.63623047 C144.14517595 8.1689002 155.41693678 5.47764369 166.56347656 1.88037109 C170.48802468 0.63669927 173.82437462 -0.36127141 178 0 C178 0.99 178 1.98 178 3 C176.35 3.33 174.7 3.66 173 4 C173 4.66 173 5.32 173 6 C173.99 6 174.98 6 176 6 C177.87866792 23.53423389 164.554826 43.90160113 154 57 C140.9614821 72.85445915 123.66281023 84.9112393 103 88 C75.64280884 89.9471617 54.12146091 84.93003138 33 67 C28.03428871 62.59203164 23.54031635 57.64116341 20 52 C20 51.34 20 50.68 20 50 C19.34 50 18.68 50 18 50 C-0.28098346 16.8590073 -0.28098346 16.8590073 0 0 Z " fill="#BCC0CA" transform="translate(161,319)"/>
<path d="M0 0 C13.15016237 -0.54124144 20.10532907 1.3228709 30 10 C35.62561729 15.18567717 35.62561729 15.18567717 38 18 C38 18.66 38 19.32 38 20 C38.66 20 39.32 20 40 20 C58.29222359 45.07666332 75.11257345 85.75250568 71 117 C68.97194466 123.33438064 66.05539834 128.61355796 61 133 C54.13182802 136.40234767 47.54660201 136.93166773 40.25 134.625 C37.42052161 133.64556517 35.53850986 132.69233991 33 131 C33 130.34 33 129.68 33 129 C32.34 129 31.68 129 31 129 C24.75669191 122.34047137 22.32830889 114.49130987 20.5 105.75 C20.2927832 104.79270996 20.08556641 103.83541992 19.87207031 102.84912109 C19.44651883 100.86962242 19.02627896 98.88897449 18.61132812 96.90722656 C18.03379622 94.16072099 17.43347353 91.42017212 16.828125 88.6796875 C14.20992909 76.57183413 12.03404314 64.5282874 13.75317383 52.13378906 C15.5173584 36.88257923 14.4085189 22.13182272 6 9 C5.43539063 8.08347656 5.43539063 8.08347656 4.859375 7.1484375 C2.9362283 4.0474003 2.9362283 4.0474003 0 2 C0 1.34 0 0.68 0 0 Z " fill="#D0D4DC" transform="translate(329,238)"/>
<path d="M0 0 C-0.36351562 0.43828125 -0.72703125 0.8765625 -1.1015625 1.328125 C-10.10292448 12.68368935 -14.38105902 24.11550833 -14.1875 38.5 C-14.18685547 39.37914062 -14.18621094 40.25828125 -14.18554688 41.1640625 C-14.15859575 45.36843771 -14.04324661 49.51492202 -13.66967773 53.70507812 C-12.78513114 63.78804389 -13.68678681 72.60713165 -15.6875 82.5 C-15.94893477 83.88119552 -16.20870232 85.26270767 -16.46679688 86.64453125 C-22.64462474 119.1597172 -22.64462474 119.1597172 -31 129 C-31.66 129 -32.32 129 -33 129 C-33 129.66 -33 130.32 -33 131 C-40.17616875 135.36198493 -46.60198447 137.30841218 -55.08203125 135.57421875 C-61.58951172 133.54607474 -64.77941115 129.61362906 -68.2578125 123.953125 C-77.96914245 104.25881951 -66.52033539 77.49469133 -60.09912109 58.45874023 C-57.09637608 49.89957328 -53.57485947 41.83369199 -49 34 C-48.63181152 33.36803711 -48.26362305 32.73607422 -47.88427734 32.08496094 C-36.84146352 13.55097887 -23.13505887 -1.84806683 0 0 Z " fill="#C4C8D1" transform="translate(171,238)"/>
<path d="M0 0 C1.94096558 0.05329468 1.94096558 0.05329468 3.92114258 0.10766602 C8.81712221 0.2400766 13.71331358 0.36248109 18.60961914 0.48217773 C20.71092403 0.53487453 22.81216673 0.59012641 24.91333008 0.64819336 C37.00354536 0.9804215 48.9688567 1.04360808 61.04101562 0.24023438 C66.03326083 -0.0626991 71.00118069 -0.10109972 76 0 C76.60130364 15.01032048 76.60130364 15.01032048 71.40625 20.765625 C66.28605924 25.75990943 60.80320613 28.03509885 54 30 C53.09580322 30.26369385 53.09580322 30.26369385 52.17333984 30.53271484 C47.65789613 31.50357075 42.97491482 31.22775132 38.375 31.25 C37.33214844 31.270625 36.28929687 31.29125 35.21484375 31.3125 C24.37974442 31.36660786 13.23206467 28.94402807 5.140625 21.2265625 C0.78022437 16.30553894 -0.12830385 12.95868861 -0.0625 6.3125 C-0.05347656 5.13300781 -0.04445312 3.95351562 -0.03515625 2.73828125 C-0.02355469 1.83464844 -0.01195312 0.93101562 0 0 Z " fill="#B7BBC6" transform="translate(212,216)"/>
<path d="M0 0 C13.70949721 0 13.70949721 0 18 4 C24.35640827 11.77997887 24.18133635 19.71039784 24.1875 29.375 C24.19974609 30.37789062 24.21199219 31.38078125 24.22460938 32.4140625 C24.23892764 39.70683245 23.99688127 46.03320497 19.8125 52.25 C13.02849203 58.88325223 10.01173516 59 0 59 C0 39.53 0 20.06 0 0 Z " fill="#C8CCD5" transform="translate(359,110)"/>
<path d="M0 0 C0.9505684 19.44030928 0.9505684 38.55969072 0 58 C-6.47394584 58.29149704 -9.28566532 57.8407972 -14.3046875 53.6484375 C-19.43945785 48.65564237 -20.10403887 43.25162211 -20.203125 36.359375 C-20.22433394 34.15629668 -20.23976466 31.95315663 -20.25 29.75 C-20.270625 28.65558594 -20.29125 27.56117188 -20.3125 26.43359375 C-20.35138831 18.31565819 -19.767174 10.92976952 -14.3125 4.5625 C-10.20278343 0.85348079 -5.47254874 0 0 0 Z " fill="#BFC3CD" transform="translate(137,110)"/>
<path d="M0 0 C4.84060271 1.70844802 8.55502939 4.42427187 11 9 C11.91135401 12.73340882 12.76239753 16.47520493 11 20 C7.03069011 20.02465881 3.06140966 20.04284023 -0.90795898 20.05493164 C-2.25920386 20.05997057 -3.61044326 20.06680177 -4.96166992 20.07543945 C-6.90020434 20.08752419 -8.838778 20.09269828 -10.77734375 20.09765625 C-12.52905884 20.10551147 -12.52905884 20.10551147 -14.31616211 20.11352539 C-17 20 -17 20 -18 19 C-18.5909343 14.39846241 -18.43208581 10.8807903 -16.375 6.6875 C-11.49821091 1.16902814 -7.27645902 -1.18114866 0 0 Z " fill="#65E2EE" transform="translate(206,132)"/>
<path d="M0 0 C4.0887211 2.34722878 6.51803022 4.57403737 8.375 8.9375 C8.80411448 11.99555724 8.83404992 14.88153914 8.375 17.9375 C7.375 18.9375 7.375 18.9375 4.69116211 19.05102539 C3.52335205 19.04578857 2.35554199 19.04055176 1.15234375 19.03515625 C-0.10771484 19.03193359 -1.36777344 19.02871094 -2.66601562 19.02539062 C-4.00651109 19.01703403 -5.34700588 19.00856907 -6.6875 19 C-8.03189942 18.9949866 -9.3763006 18.99042342 -10.72070312 18.98632812 C-14.02217941 18.97449488 -17.32356803 18.95800971 -20.625 18.9375 C-22.15714888 15.87320224 -21.85438548 13.3209358 -21.625 9.9375 C-17.64092545 0.64132606 -9.49347631 -2.78257064 0 0 Z " fill="#72EAF7" transform="translate(303.625,133.0625)"/>
<path d="M0 0 C0 0.99 0 1.98 0 3 C-3.29079625 4.10677208 -6.58279628 5.20992234 -9.875 6.3125 C-10.7928125 6.62123047 -11.710625 6.92996094 -12.65625 7.24804688 C-15.43378652 8.1771524 -18.21523444 9.09280056 -21 10 C-21.88316895 10.2889917 -22.76633789 10.5779834 -23.67626953 10.87573242 C-28.53373277 12.40780084 -33.00525827 13.41517331 -38.125 13.6875 C-39.79949219 13.78611328 -39.79949219 13.78611328 -41.5078125 13.88671875 C-42.33023438 13.92410156 -43.15265625 13.96148437 -44 14 C-44 17.63 -44 21.26 -44 25 C-67.08767839 31.51190929 -91.26719851 30.9806809 -115 29 C-115 28.01 -115 27.02 -115 26 C-113.76548096 25.97494385 -112.53096191 25.9498877 -111.2590332 25.92407227 C-106.6201169 25.82894646 -101.98131432 25.72899538 -97.3425293 25.62768555 C-95.34581182 25.58472982 -93.34906681 25.54303269 -91.35229492 25.50268555 C-69.91437518 25.76345086 -69.91437518 25.76345086 -49 22 C-47.85185003 19.70370006 -47.69230191 17.92301914 -47.4375 15.375 C-47.31181641 14.14910156 -47.31181641 14.14910156 -47.18359375 12.8984375 C-47.12300781 12.27195312 -47.06242187 11.64546875 -47 11 C-46.43829102 10.87995605 -45.87658203 10.75991211 -45.29785156 10.63623047 C-33.85482405 8.1689002 -22.58306322 5.47764369 -11.43652344 1.88037109 C-7.51197532 0.63669927 -4.17562538 -0.36127141 0 0 Z " fill="#B1B5BE" transform="translate(339,319)"/>
<path d="M0 0 C4.80480126 0.67462108 9.31773506 1.93769262 13.9375 3.375 C20.97425432 5.51756184 27.98315315 7.1146033 35.21875 8.421875 C38 9 38 9 39 10 C40.32781878 10.20604085 41.66295895 10.3662959 43 10.5 C46.88888889 10.88888889 46.88888889 10.88888889 48 12 C48.32097751 14.31817089 48.51220956 16.63779357 48.71875 18.96875 C48.79065837 20.99180593 48.79065837 20.99180593 50 22 C53.5045866 24.15666868 56.95522035 24.53329466 61 25 C61 25.66 61 26.32 61 27 C49.47835991 27.3690205 49.47835991 27.3690205 44 25 C44 21.7 44 18.4 44 15 C42.25203125 14.68869141 42.25203125 14.68869141 40.46875 14.37109375 C26.69217367 11.81608228 13.38735707 8.11118733 0 4 C0 2.68 0 1.36 0 0 Z " fill="#A6AAB3" transform="translate(161,319)"/>
<path d="M0 0 C7.92 0 15.84 0 24 0 C23 8 23 8 21.125 10.4375 C16.85132981 13.57990455 12.11276825 13.66492944 7 13 C3.66399633 10.94161475 2.1737824 9.2606736 0 6 C0 4.02 0 2.04 0 0 Z " fill="#57DCEB" transform="translate(238,171)"/>
<path d="M0 0 C0.66 0.33 1.32 0.66 2 1 C2 1.66 2 2.32 2 3 C2.60585938 2.9278125 3.21171875 2.855625 3.8359375 2.78125 C9.93043257 2.10616747 15.86889264 1.91241275 22 2 C22.66 5.96 23.32 9.92 24 14 C24.66 14 25.32 14 26 14 C25.77192509 15.79458945 25.51677697 17.58575449 25.25 19.375 C25.11078125 20.37273437 24.9715625 21.37046875 24.828125 22.3984375 C24 25 24 25 21.984375 26.1640625 C21.32953125 26.43992188 20.6746875 26.71578125 20 27 C19.67 27.99 19.34 28.98 19 30 C17.68 30 16.36 30 15 30 C14.505 27.525 14.505 27.525 14 25 C12.741875 25.350625 11.48375 25.70125 10.1875 26.0625 C7.05283612 26.93609485 6.21717892 27.07239297 3 26 C-0.27773504 26.75150023 -0.27773504 26.75150023 -2 30 C-2 29.01 -2 28.02 -2 27 C-2.99 27.33 -3.98 27.66 -5 28 C-5 27.34 -5 26.68 -5 26 C-6.32 25.67 -7.64 25.34 -9 25 C-9 22.29894773 -8.85711442 19.68932572 -8.625 17 C-8.55539062 16.13375 -8.48578125 15.2675 -8.4140625 14.375 C-8 12 -8 12 -6 9 C-6.99 8.67 -7.98 8.34 -9 8 C-7.6875 6.5 -7.6875 6.5 -6 5 C-5.01 5 -4.02 5 -3 5 C-3.33 4.01 -3.66 3.02 -4 2 C-2.125 0.9375 -2.125 0.9375 0 0 Z M-6 12 C-7.1671568 15.50147041 -7.13357453 18.32670036 -7 22 C-6.67 22.66 -6.34 23.32 -6 24 C-2.03069011 24.02465881 1.93859034 24.04284023 5.90795898 24.05493164 C7.25920386 24.05997057 8.61044326 24.06680177 9.96166992 24.07543945 C11.90020434 24.08752419 13.838778 24.09269828 15.77734375 24.09765625 C16.94515381 24.10289307 18.11296387 24.10812988 19.31616211 24.11352539 C21.91891551 24.30661495 21.91891551 24.30661495 23 23 C23.71091054 18.267367 23.59368234 14.20071585 20.9375 10.125 C17.28453066 5.68998652 13.06092059 4.25309551 7.4375 3.5625 C1.66547608 4.29712123 -2.25244733 7.69725434 -6 12 Z " fill="#16465B" transform="translate(289,128)"/>
<path d="M0 0 C0 0.99 0 1.98 0 3 C-3.29079625 4.10677208 -6.58279628 5.20992234 -9.875 6.3125 C-10.7928125 6.62123047 -11.710625 6.92996094 -12.65625 7.24804688 C-15.43378652 8.1771524 -18.21523444 9.09280056 -21 10 C-21.88316895 10.2889917 -22.76633789 10.5779834 -23.67626953 10.87573242 C-28.53373277 12.40780084 -33.00525827 13.41517331 -38.125 13.6875 C-39.79949219 13.78611328 -39.79949219 13.78611328 -41.5078125 13.88671875 C-42.33023437 13.92410156 -43.15265625 13.96148437 -44 14 C-44 15.98 -44 17.96 -44 20 C-44.99 19.67 -45.98 19.34 -47 19 C-47 16.36 -47 13.72 -47 11 C-46.43829102 10.87995605 -45.87658203 10.75991211 -45.29785156 10.63623047 C-33.85482405 8.1689002 -22.58306322 5.47764369 -11.43652344 1.88037109 C-7.51197532 0.63669927 -4.17562538 -0.36127141 0 0 Z " fill="#A5A9B2" transform="translate(339,319)"/>
<path d="M0 0 C1.65 0 3.3 0 5 0 C5.84827407 5.26159188 6.45884926 9.08230148 4 14 C4 14.99 4 15.98 4 17 C4 17.33 4 17.66 4 18 C0.7 18 -2.6 18 -6 18 C-7.125 12.375 -7.125 12.375 -6 9 C-6.99 9 -7.98 9 -9 9 C-9 7.68 -9 6.36 -9 5 C-6.03 3.68 -3.06 2.36 0 1 C0 0.67 0 0.34 0 0 Z " fill="#7BECF9" transform="translate(204,133)"/>
<path d="M0 0 C-0.33 0.99 -0.66 1.98 -1 3 C-1.7425 2.979375 -2.485 2.95875 -3.25 2.9375 C-5.88281277 2.89431216 -5.88281277 2.89431216 -7.90234375 3.484375 C-10.07714749 4.01896363 -12.07906852 4.17749119 -14.3125 4.3125 C-28.85921923 5.7181859 -48.1455822 10.82872738 -59 21 C-59.64582031 21.58007812 -60.29164063 22.16015625 -60.95703125 22.7578125 C-64.34603354 25.94664969 -66.60847109 28.47753104 -68 33 C-68.495 33.886875 -68.99 34.77375 -69.5 35.6875 C-71.45808515 40.01160471 -72.21710421 44.33946744 -73 49 C-73.33 49 -73.66 49 -74 49 C-73.54907453 37.1406602 -70.79665367 28.90236745 -62.46875 20.25 C-47.37733065 6.49579502 -20.04510091 -0.35218332 0 0 Z " fill="#F1F2F5" transform="translate(210,60)"/>
<path d="M0 0 C7.92 0 15.84 0 24 0 C24.85439685 5.12638109 24.89038866 8.05339631 24 13 C23.1646875 13.12375 23.1646875 13.12375 22.3125 13.25 C19.30642146 14.22494439 17.45228172 16.02621227 15 18 C12.1875 19.25 12.1875 19.25 10 20 C10 19.34 10 18.68 10 18 C9.113125 17.95875 8.22625 17.9175 7.3125 17.875 C2.78370473 16.67871446 1.70356508 14.73728113 -1 11 C-0.34 10.01 0.32 9.02 1 8 C1.639375 8.825 2.27875 9.65 2.9375 10.5 C6.57542961 13.46973845 8.30999046 13.64915347 12.8515625 13.33984375 C16.05285188 12.83345798 17.64489676 12.2858355 20 10 C20.99 7.03 21.98 4.06 23 1 C15.41 1 7.82 1 0 1 C0 0.67 0 0.34 0 0 Z " fill="#123748" transform="translate(239,170)"/>
<path d="M0 0 C1.32 0.33 2.64 0.66 4 1 C3.67 1.33 3.34 1.66 3 2 C2.04829239 7.93286976 1.85299093 13.72312188 1.8671875 19.72265625 C1.86623077 20.62696884 1.86527405 21.53128143 1.86428833 22.46299744 C1.86361169 24.36310903 1.86542977 26.263223 1.86962891 28.16333008 C1.87499075 31.05750758 1.86966311 33.95153035 1.86328125 36.84570312 C1.863942 38.70052117 1.8652231 40.55533912 1.8671875 42.41015625 C1.86516327 43.26762955 1.86313904 44.12510284 1.86105347 45.00856018 C1.8795091 49.77751315 2.2026963 54.29654156 3 59 C2.01 59 1.02 59 0 59 C0 39.53 0 20.06 0 0 Z " fill="#ACB0BB" transform="translate(359,110)"/>
<path d="M0 0 C0.99 1.485 0.99 1.485 2 3 C-0.73282675 1.92343188 -3.37004879 0.81497561 -6 -0.5 C-18.84633624 -5.94242632 -36.4502578 -5.1025462 -50 -3 C-50.99 -2.505 -50.99 -2.505 -52 -2 C-54 -2 -56 -2 -58 -2 C-60.00569659 -1.70285977 -62.00822259 -1.37938617 -64 -1 C-52.18882974 -12.81117026 -12.66982032 -8.72602821 0 0 Z " fill="#F2F3F6" transform="translate(284,50)"/>
<path d="M0 0 C0.93818736 3.33441016 0.90782987 5.36868051 0.0625 8.75 C-0.13214844 9.54921875 -0.32679687 10.3484375 -0.52734375 11.171875 C-0.68332031 11.77515625 -0.83929688 12.3784375 -1 13 C-1.66 13 -2.32 13 -3 13 C-2.79375 13.5775 -2.5875 14.155 -2.375 14.75 C-1.8967424 17.61954561 -2.62450777 18.46619852 -4 21 C-4.96152828 24.11082678 -5.84739914 27.17159535 -6.4375 30.375 C-7.12083599 33.56390127 -8.18357434 36.55309028 -9.28125 39.62109375 C-12.13118659 49.0537643 -11.51122028 59.36597071 -10 69 C-14.99603917 61.50594125 -13.96657043 50.74637907 -12.51953125 42.14355469 C-9.51489328 27.77583523 -4.86821402 13.82688007 0 0 Z " fill="#E6E8EB" transform="translate(113,291)"/>
<path d="M0 0 C0.66 0.33 1.32 0.66 2 1 C2 1.66 2 2.32 2 3 C2.60585938 2.9278125 3.21171875 2.855625 3.8359375 2.78125 C9.93043257 2.10616747 15.86889264 1.91241275 22 2 C22.66 5.96 23.32 9.92 24 14 C24.66 14 25.32 14 26 14 C25.67 14.99 25.34 15.98 25 17 C24.34 17 23.68 17 23 17 C22.75765625 16.45730469 22.5153125 15.91460937 22.265625 15.35546875 C19.71760052 9.75796505 19.71760052 9.75796505 15 6 C10.40293897 4.45715075 5.67524967 5.07532754 0.8984375 5.2578125 C-0.05804688 5.17273438 -1.01453125 5.08765625 -2 5 C-2.66 4.01 -3.32 3.02 -4 2 C-2.125 0.9375 -2.125 0.9375 0 0 Z " fill="#113F52" transform="translate(289,128)"/>
<path d="M0 0 C0.66 0.33 1.32 0.66 2 1 C1.34 1.66 0.68 2.32 0 3 C0.33 3.99 0.66 4.98 1 6 C0.401875 6.061875 -0.19625 6.12375 -0.8125 6.1875 C-3.93092447 7.34577195 -4.56824742 9.06831615 -6 12 C-7.06217889 15.32296745 -7.11539625 18.38233441 -7.09765625 21.859375 C-7.09443359 22.97441406 -7.09121094 24.08945313 -7.08789062 25.23828125 C-7.07951172 26.39714844 -7.07113281 27.55601562 -7.0625 28.75 C-7.05798828 29.92433594 -7.05347656 31.09867188 -7.04882812 32.30859375 C-7.03705094 35.20578072 -7.02060326 38.10286454 -7 41 C-6.34 41.33 -5.68 41.66 -5 42 C-3.62108968 44.6852464 -2.88612464 46.29776859 -3.375 49.3125 C-3.58125 49.869375 -3.7875 50.42625 -4 51 C-9.49737954 43.37460258 -9.20760597 36.87531504 -9.25 27.75 C-9.270625 26.65558594 -9.29125 25.56117188 -9.3125 24.43359375 C-9.34831324 16.95758093 -8.93935347 10.01211021 -4.39453125 3.80859375 C-2.9296875 2.5390625 -1.46484375 1.26953125 0 0 Z " fill="#EDEEF2" transform="translate(126,112)"/>
<path d="M0 0 C3.875 1.875 3.875 1.875 5 3 C5.04080783 4.99958364 5.04254356 7.00045254 5 9 C5.66 9.33 6.32 9.66 7 10 C7 12.31 7 14.62 7 17 C5.72125 17.061875 4.4425 17.12375 3.125 17.1875 C2.04605469 17.23970703 2.04605469 17.23970703 0.9453125 17.29296875 C0.30335938 17.19628906 -0.33859375 17.09960938 -1 17 C-1.66 16.01 -2.32 15.02 -3 14 C-2.34 13.34 -1.68 12.68 -1 12 C-0.50355548 10.09776401 -0.50355548 10.09776401 -0.3125 8 C-0.22613281 7.29875 -0.13976562 6.5975 -0.05078125 5.875 C0.14989516 3.9070696 0.14989516 3.9070696 -1 2 C-0.67 1.34 -0.34 0.68 0 0 Z " fill="#5FE5F2" transform="translate(209,134)"/>
<path d="M0 0 C4.89661377 0.40136178 8.6792262 1.32968379 12.36328125 4.75390625 C15.74875724 8.8641602 16.31740929 12.23955847 16.0859375 17.4921875 C15.8125 19.3125 15.8125 19.3125 14.8125 20.3125 C13.46982587 20.39881874 12.12275678 20.41956473 10.77734375 20.41015625 C9.96845703 20.40693359 9.15957031 20.40371094 8.32617188 20.40039062 C7.47603516 20.39201172 6.62589844 20.38363281 5.75 20.375 C4.89599609 20.37048828 4.04199219 20.36597656 3.16210938 20.36132812 C1.04554337 20.34950373 -1.07098685 20.33156769 -3.1875 20.3125 C-3.1875 19.9825 -3.1875 19.6525 -3.1875 19.3125 C0.1125 19.3125 3.4125 19.3125 6.8125 19.3125 C7.1425 18.6525 7.4725 17.9925 7.8125 17.3125 C9.1325 17.6425 10.4525 17.9725 11.8125 18.3125 C12.97313604 14.05683453 12.57423392 10.6289922 11.8125 6.3125 C7.93565913 5.11962589 4.89628077 4.3125 0.8125 4.3125 C0.8125 3.6525 0.8125 2.9925 0.8125 2.3125 C-0.1775 1.9825 -1.1675 1.6525 -2.1875 1.3125 C-2.1875 1.9725 -2.1875 2.6325 -2.1875 3.3125 C-3.1775 2.9825 -4.1675 2.6525 -5.1875 2.3125 C-3.1875 0.3125 -3.1875 0.3125 0 0 Z " fill="#65CFDB" transform="translate(296.1875,131.6875)"/>
<path d="M0 0 C1.46373047 0.01353516 1.46373047 0.01353516 2.95703125 0.02734375 C4.06111328 0.04474609 4.06111328 0.04474609 5.1875 0.0625 C5.5175 1.0525 5.8475 2.0425 6.1875 3.0625 C7.1775 3.3925 8.1675 3.7225 9.1875 4.0625 C8.1975 5.3825 7.2075 6.7025 6.1875 8.0625 C5.2903125 7.3509375 5.2903125 7.3509375 4.375 6.625 C0.3461507 3.7472505 -3.99770411 3.26739609 -8.8125 4.0625 C-13.02422739 6.14751356 -16.30188465 9.07505209 -18.8125 13.0625 C-19.625 11.4375 -19.625 11.4375 -19.8125 9.0625 C-17.625 5.8125 -17.625 5.8125 -14.8125 3.0625 C-13.4925 3.0625 -12.1725 3.0625 -10.8125 3.0625 C-10.8125 2.4025 -10.8125 1.7425 -10.8125 1.0625 C-7.13862505 0.20951624 -3.7677607 -0.04539471 0 0 Z " fill="#153F53" transform="translate(206.8125,128.9375)"/>
<path d="M0 0 C4.75 0.75 4.75 0.75 7 3 C7.39764263 4.98821313 7.73775349 6.98944339 8 9 C10.39719432 9.67958603 10.39719432 9.67958603 13 10 C13.66 9.34 14.32 8.68 15 8 C15 10.97 15 13.94 15 17 C8.71561033 15.77377763 5.62943845 11.95773809 2 7 C0.42314497 4.28658063 0 3.20997172 0 0 Z " fill="#141F2B" transform="translate(152,176)"/>
<path d="M0 0 C4.1598117 3.32784936 5.18231114 6.91901514 6 12 C6.27084927 15.83808117 6.27993185 19.65375776 6.25 23.5 C6.25773437 24.49386719 6.26546875 25.48773438 6.2734375 26.51171875 C6.23662869 40.44385292 6.23662869 40.44385292 1.375 46 C0.59125 46.66 -0.1925 47.32 -1 48 C-0.67 46.35 -0.34 44.7 0 43 C0.66 43 1.32 43 2 43 C3.72381249 37.46410919 3.22450228 31.52541712 3.24023438 25.78320312 C3.24993698 23.63892779 3.28098433 21.4956131 3.3125 19.3515625 C3.31903147 17.97656815 3.32428138 16.60156699 3.328125 15.2265625 C3.3374707 13.98471191 3.34681641 12.74286133 3.35644531 11.46337891 C2.96729347 7.68220897 1.82551404 5.29857734 0 2 C0 1.34 0 0.68 0 0 Z " fill="#F1F3F5" transform="translate(377,116)"/>
<path d="M0 0 C0.33 0 0.66 0 1 0 C1 3 1 6 1 9 C1.66 9.33 2.32 9.66 3 10 C2.67 11.32 2.34 12.64 2 14 C1.01 13.566875 1.01 13.566875 0 13.125 C-4.20947298 12.94960529 -5.83395189 14.91338991 -9.00390625 17.49609375 C-12.03768863 19.7818202 -15.19457028 21 -19 21 C-19 20.34 -19 19.68 -19 19 C-18.34773438 18.72027344 -17.69546875 18.44054687 -17.0234375 18.15234375 C-9.39242895 14.65198437 -4.53216858 10.83461266 -1.125 3.0625 C-0.75375 2.051875 -0.3825 1.04125 0 0 Z " fill="#A2A9B7" transform="translate(348,176)"/>
<path d="M0 0 C0.33 0 0.66 0 1 0 C1.06058594 0.63808594 1.12117187 1.27617187 1.18359375 1.93359375 C1.26738281 2.75988281 1.35117188 3.58617187 1.4375 4.4375 C1.51871094 5.26121094 1.59992188 6.08492188 1.68359375 6.93359375 C1.78930815 8.98662025 1.78930815 8.98662025 3 10 C6.5045866 12.15666868 9.95522035 12.53329466 14 13 C14 13.66 14 14.32 14 15 C2.47835991 15.3690205 2.47835991 15.3690205 -3 13 C-3 10.03 -3 7.06 -3 4 C-2.34 4 -1.68 4 -1 4 C-0.67 2.68 -0.34 1.36 0 0 Z " fill="#AFB3BC" transform="translate(208,331)"/>
<path d="M0 0 C0.33 0.66 0.66 1.32 1 2 C1.66 2 2.32 2 3 2 C4.5 6.5 4.5 6.5 6 11 C5.01 11.99 4.02 12.98 3 14 C3.66 14.33 4.32 14.66 5 15 C4.1875 16.9375 4.1875 16.9375 3 19 C-0.69418201 20.231394 -3.2056261 19.64432764 -7 19 C-7 18.67 -7 18.34 -7 18 C-4.36 18 -1.72 18 1 18 C1.23620443 13.51211574 1.35282016 10.26512041 -0.625 6.1875 C-1.07875 5.135625 -1.5325 4.08375 -2 3 C-1.34 2.01 -0.68 1.02 0 0 Z M-5 20 C-3.35 20 -1.7 20 0 20 C0 20.33 0 20.66 0 21 C-1.65 21 -3.3 21 -5 21 C-5 20.67 -5 20.34 -5 20 Z " fill="#1B4760" transform="translate(216,134)"/>
<path d="M0 0 C-1.1446875 1.0828125 -1.1446875 1.0828125 -2.3125 2.1875 C-6.32842544 6.39021267 -8.169187 8.96149654 -8.1875 14.8125 C-8.13966204 16.20891272 -8.08204828 17.60517921 -8 19 C-5.69 19 -3.38 19 -1 19 C-1 19.33 -1 19.66 -1 20 C-5.95 20.495 -5.95 20.495 -11 21 C-11 18.13956961 -10.84726491 15.35112231 -10.625 12.5 C-10.55539062 11.5409375 -10.48578125 10.581875 -10.4140625 9.59375 C-10 7 -10 7 -8 4 C-8.99 3.67 -9.98 3.34 -11 3 C-7.46647659 -0.87004945 -5.02196482 -1.22155901 0 0 Z " fill="#1A4F64" transform="translate(291,133)"/>
<path d="M0 0 C-0.48828125 1.8984375 -0.48828125 1.8984375 -2 4 C-4.80080817 4.74568908 -7.33612107 5.24899399 -10.1875 5.625 C-11.68152805 5.84269012 -13.17503202 6.06400981 -14.66796875 6.2890625 C-15.76117432 6.44616699 -15.76117432 6.44616699 -16.87646484 6.60644531 C-18.9490758 6.99056222 -20.81354236 7.58079432 -22.80078125 8.2734375 C-24.38439453 8.63308594 -24.38439453 8.63308594 -26 9 C-28.19995117 7.54541016 -28.19995117 7.54541016 -30 6 C-29.25838623 5.85377197 -28.51677246 5.70754395 -27.75268555 5.55688477 C-24.39722298 4.89410006 -21.04235841 4.22833576 -17.6875 3.5625 C-16.52025391 3.33240234 -15.35300781 3.10230469 -14.15039062 2.86523438 C-13.03212891 2.64287109 -11.91386719 2.42050781 -10.76171875 2.19140625 C-9.73006592 1.98717041 -8.69841309 1.78293457 -7.63549805 1.57250977 C-0.39658849 0 -0.39658849 0 0 0 Z " fill="#96A0AC" transform="translate(322,198)"/>
<path d="M0 0 C0 5.90052569 -1.5325611 9.19032669 -5 14 C-3.68 14.66 -2.36 15.32 -1 16 C-2.98 16.99 -2.98 16.99 -5 18 C-7 16 -7 16 -7.3125 12.6875 C-6.81867665 6.86038453 -4.17911446 3.89089967 0 0 Z " fill="#5BD4E0" transform="translate(289,134)"/>
<path d="M0 0 C1.32 0.33 2.64 0.66 4 1 C3.67 1.33 3.34 1.66 3 2 C2.03498279 7.33472627 1.79734562 12.58450002 1.68359375 17.99609375 C1.66281265 18.82963882 1.64203156 19.6631839 1.62062073 20.52198792 C1.55572144 23.16041561 1.49652022 25.79893491 1.4375 28.4375 C1.39425794 30.23633724 1.35064192 32.03516554 1.30664062 33.83398438 C1.20010201 38.2225646 1.09867025 42.6112361 1 47 C0.67 47 0.34 47 0 47 C0 31.49 0 15.98 0 0 Z " fill="#B6B9C3" transform="translate(359,110)"/>
<path d="M0 0 C4.4030087 1.34536377 6.471564 3.16052312 9 7 C9 7.99 9 8.98 9 10 C5.53734736 9.6852134 3.41414041 9.29733158 0.5625 7.25 C-1 5 -1 5 -0.75 2.25 C-0.5025 1.5075 -0.255 0.765 0 0 Z " fill="#15212D" transform="translate(337,102)"/>
<path d="M0 0 C2.31 0 4.62 0 7 0 C6.59007812 0.54269531 6.18015625 1.08539063 5.7578125 1.64453125 C4.94957031 2.71767578 4.94957031 2.71767578 4.125 3.8125 C3.59132812 4.52019531 3.05765625 5.22789062 2.5078125 5.95703125 C1.29185219 7.60456297 0.13583859 9.29624211 -1 11 C-1.66 10.67 -2.32 10.34 -3 10 C-2.67 7.69 -2.34 5.38 -2 3 C-1.34 3 -0.68 3 0 3 C0 2.01 0 1.02 0 0 Z " fill="#ABADB7" transform="translate(164,238)"/>
<path d="M0 0 C7.92 0 15.84 0 24 0 C24.85439685 5.12638109 24.89038866 8.05339631 24 13 C23.01 12.67 22.02 12.34 21 12 C21.66 8.37 22.32 4.74 23 1 C15.41 1 7.82 1 0 1 C0 0.67 0 0.34 0 0 Z " fill="#1B5A70" transform="translate(239,170)"/>
<path d="M0 0 C2.9719385 1.12451727 5.33440687 2.22293791 8 4 C8 4.66 8 5.32 8 6 C8.66 6 9.32 6 10 6 C11.65625 8.01171875 11.65625 8.01171875 13.5 10.6875 C14.1084375 11.55761719 14.716875 12.42773438 15.34375 13.32421875 C19.22729569 19.59834327 19.22729569 19.59834327 18.625 23.3125 C18.315625 24.1478125 18.315625 24.1478125 18 25 C17.8040625 24.38253906 17.608125 23.76507813 17.40625 23.12890625 C13.99941307 13.48109649 7.85809598 7.28647678 0 1 C0 0.67 0 0.34 0 0 Z " fill="#F2F3F6" transform="translate(340,75)"/>
<path d="M0 0 C1.99028875 1.66392419 2.91025468 2.64037768 3.546875 5.19140625 C3.64742187 6.36509766 3.64742187 6.36509766 3.75 7.5625 C3.82734375 8.34753906 3.9046875 9.13257813 3.984375 9.94140625 C4 12 4 12 3 14 C-3.27 14 -9.54 14 -16 14 C-16 13.67 -16 13.34 -16 13 C-10.06 13 -4.12 13 2 13 C2 10.69 2 8.38 2 6 C1.01 5.67 0.02 5.34 -1 5 C-0.67 3.35 -0.34 1.7 0 0 Z " fill="#5DCBD7" transform="translate(214,138)"/>
<path d="M0 0 C1.05078125 1.8515625 1.05078125 1.8515625 2 4 C1.1875 6.375 1.1875 6.375 0 9 C-1.8183885 17.87875211 -1.39842547 27.08503766 0 36 C-5.0161093 28.47583605 -3.84037824 16.82240302 -2.328125 8.14453125 C-1.6317418 5.39513156 -0.88721597 2.69333419 0 0 Z " fill="#F0F1F3" transform="translate(103,324)"/>
<path d="M0 0 C0.763125 0.309375 1.52625 0.61875 2.3125 0.9375 C4.18789677 1.67893593 6.08684652 2.36228217 8 3 C8 4.65 8 6.3 8 8 C5.03 8 2.06 8 -1 8 C-0.01 7.34 0.98 6.68 2 6 C1.01 5.34 0.02 4.68 -1 4 C-0.67 2.68 -0.34 1.36 0 0 Z " fill="#65E2F3" transform="translate(285,144)"/>
<path d="M0 0 C0.66 0.33 1.32 0.66 2 1 C1.4376049 4.26189156 0.5859495 5.91134848 -2 8 C-4.88211302 8.96070434 -6.69850044 9.10581883 -9.6875 9.0625 C-10.89986328 9.04896484 -10.89986328 9.04896484 -12.13671875 9.03515625 C-13.05904297 9.01775391 -13.05904297 9.01775391 -14 9 C-14.33 8.01 -14.66 7.02 -15 6 C-13.80375 6.020625 -12.6075 6.04125 -11.375 6.0625 C-7.81995131 6.06882571 -4.49444376 5.69888875 -1 5 C-0.67 3.35 -0.34 1.7 0 0 Z " fill="#5FD3E1" transform="translate(259,175)"/>
<path d="M0 0 C0.66 0.33 1.32 0.66 2 1 C1.01 2.485 1.01 2.485 0 4 C0.99 4.99 1.98 5.98 3 7 C-0.4352048 9.29013653 -1.985331 9.17842973 -6 9 C-5.67 8.01 -5.34 7.02 -5 6 C-5 5.01 -5 4.02 -5 3 C-2.625 1.25 -2.625 1.25 0 0 Z " fill="#D5DCE2" transform="translate(162,93)"/>
<path d="M0 0 C0.66 0.33 1.32 0.66 2 1 C1.28972656 1.54269531 0.57945312 2.08539063 -0.15234375 2.64453125 C-1.07144531 3.35996094 -1.99054688 4.07539063 -2.9375 4.8125 C-3.85402344 5.52019531 -4.77054688 6.22789062 -5.71484375 6.95703125 C-8.23136513 8.86661858 -8.23136513 8.86661858 -9 12 C-10.32 11.67 -11.64 11.34 -13 11 C-12.67 10.67 -12.34 10.34 -12 10 C-15.3 9.67 -18.6 9.34 -22 9 C-22 8.67 -22 8.34 -22 8 C-17.71 8 -13.42 8 -9 8 C-9 7.34 -9 6.68 -9 6 C-7.03125 4.4921875 -7.03125 4.4921875 -4.5 2.875 C-3.6646875 2.33617187 -2.829375 1.79734375 -1.96875 1.2421875 C-1.3190625 0.83226562 -0.669375 0.42234375 0 0 Z " fill="#EAEBEF" transform="translate(182,229)"/>
<path d="M0 0 C1.98 0.66 3.96 1.32 6 2 C6 4.64 6 7.28 6 10 C3.08482708 8.92598892 1.22189824 8.22189824 -1 6 C-1.1875 3.4375 -1.1875 3.4375 -1 1 C-0.67 0.67 -0.34 0.34 0 0 Z " fill="#173D54" transform="translate(233,168)"/>
<path d="M0 0 C1.32 0.66 2.64 1.32 4 2 C4 6.39174077 3.24624735 10.5140897 0.375 13.9375 C-0.07875 14.288125 -0.5325 14.63875 -1 15 C-1.66 14.67 -2.32 14.34 -3 14 C-2.34 13.34 -1.68 12.68 -1 12 C-0.50355548 10.09776401 -0.50355548 10.09776401 -0.3125 8 C-0.22613281 7.29875 -0.13976562 6.5975 -0.05078125 5.875 C0.14989516 3.9070696 0.14989516 3.9070696 -1 2 C-0.67 1.34 -0.34 0.68 0 0 Z " fill="#69E1EC" transform="translate(209,134)"/>
<path d="M0 0 C0.99 0.33 1.98 0.66 3 1 C1.70186222 3.89584583 0.46696251 5.98157613 -2 8 C-4.26171875 8.51171875 -4.26171875 8.51171875 -6.6875 8.6875 C-7.89986328 8.78611328 -7.89986328 8.78611328 -9.13671875 8.88671875 C-9.75160156 8.92410156 -10.36648437 8.96148437 -11 9 C-11.33 8.34 -11.66 7.68 -12 7 C-10.906875 6.855625 -9.81375 6.71125 -8.6875 6.5625 C-5.06877013 6.11711896 -5.06877013 6.11711896 -2 5 C-2 3.68 -2 2.36 -2 1 C-1.34 0.67 -0.68 0.34 0 0 Z " fill="#51E2F2" transform="translate(258,173)"/>
<path d="M0 0 C0.66 0.33 1.32 0.66 2 1 C1.34 1.66 0.68 2.32 0 3 C0.33 3.99 0.66 4.98 1 6 C0.401875 6.061875 -0.19625 6.12375 -0.8125 6.1875 C-3.91786033 7.34091955 -4.51915754 9.10562611 -6 12 C-6.391875 12.763125 -6.78375 13.52625 -7.1875 14.3125 C-7.5896875 15.1478125 -7.5896875 15.1478125 -8 16 C-8.50731767 10.67316448 -7.26718004 8.17473006 -4 4 C-2.70317626 2.63113049 -1.38176866 1.2830709 0 0 Z " fill="#E3E2E8" transform="translate(126,112)"/>
<path d="M0 0 C-0.6290625 0.24234375 -1.258125 0.4846875 -1.90625 0.734375 C-6.12623119 2.38677727 -10.241669 4.06681325 -14.25 6.1875 C-17.46542178 7.85402958 -20.36542581 8.63654258 -24 9 C-22.10221326 5.20442652 -16.91383503 4.31388483 -13.125 2.8125 C-11.73861328 2.24112305 -11.73861328 2.24112305 -10.32421875 1.65820312 C-8.99197266 1.12549805 -8.99197266 1.12549805 -7.6328125 0.58203125 C-6.81699707 0.25436768 -6.00118164 -0.0732959 -5.16064453 -0.41088867 C-3 -1 -3 -1 0 0 Z " fill="#F4F4F7" transform="translate(208,220)"/>
<path d="M0 0 C0.33 0 0.66 0 1 0 C1.25287193 6.06892629 0.69832609 11.16200408 -1 17 C-1.33 17 -1.66 17 -2 17 C-2 15.02 -2 13.04 -2 11 C-2.99 11 -3.98 11 -5 11 C-5 10.34 -5 9.68 -5 9 C-3.35 8.67 -1.7 8.34 0 8 C0 7.01 0 6.02 0 5 C-1.32 4.34 -2.64 3.68 -4 3 C-2.68 3 -1.36 3 0 3 C0 2.01 0 1.02 0 0 Z " fill="#D0D4D9" transform="translate(339,314)"/>
<path d="M0 0 C0.33 0 0.66 0 1 0 C1.33 3.63 1.66 7.26 2 11 C4.31 11 6.62 11 9 11 C9 11.33 9 11.66 9 12 C7.52093108 12.02689216 6.04172517 12.04634621 4.5625 12.0625 C3.32693359 12.07990234 3.32693359 12.07990234 2.06640625 12.09765625 C0 12 0 12 -1 11 C-1.09823996 9.52351124 -1.12973519 8.04224583 -1.125 6.5625 C-1.12757813 5.75941406 -1.13015625 4.95632812 -1.1328125 4.12890625 C-1 2 -1 2 0 0 Z " fill="#63DBE3" transform="translate(189,140)"/>
<path d="M0 0 C0.66 0 1.32 0 2 0 C2 0.66 2 1.32 2 2 C2.639375 2.103125 3.27875 2.20625 3.9375 2.3125 C8.06477326 3.23903073 12.00642949 4.61660629 16 6 C12.45332822 7.25127906 10.27746562 6.72285053 6.75 5.5625 C5.85796875 5.27503906 4.9659375 4.98757812 4.046875 4.69140625 C3.37140625 4.46324219 2.6959375 4.23507813 2 4 C1.67 4.66 1.34 5.32 1 6 C0.67 4.02 0.34 2.04 0 0 Z " fill="#F2F5F7" transform="translate(288,216)"/>
<path d="M0 0 C0.33 0 0.66 0 1 0 C1 1.65 1 3.3 1 5 C1.66 5.33 2.32 5.66 3 6 C2.1875 7.9375 2.1875 7.9375 1 10 C-2.69418201 11.231394 -5.2056261 10.64432764 -9 10 C-9 9.67 -9 9.34 -9 9 C-6.36 9 -3.72 9 -1 9 C-0.67 6.03 -0.34 3.06 0 0 Z M-7 11 C-5.35 11 -3.7 11 -2 11 C-2 11.33 -2 11.66 -2 12 C-3.65 12 -5.3 12 -7 12 C-7 11.67 -7 11.34 -7 11 Z " fill="#1C5269" transform="translate(218,143)"/>
<path d="M0 0 C1.32 0.33 2.64 0.66 4 1 C3.01 1.495 3.01 1.495 2 2 C2.34224609 3.12148438 2.34224609 3.12148438 2.69140625 4.265625 C2.97886719 5.25046875 3.26632813 6.2353125 3.5625 7.25 C3.85253906 8.22453125 4.14257812 9.1990625 4.44140625 10.203125 C4.99249836 12.96243932 4.93789609 14.3912824 4 17 C3.32635339 14.91891315 2.66133202 12.8350329 2 10.75 C1.62875 9.58984375 1.2575 8.4296875 0.875 7.234375 C0 4 0 4 0 0 Z " fill="#E7E8EC" transform="translate(161,323)"/>
<path d="M0 0 C0.33 0.99 0.66 1.98 1 3 C-0.5 5.125 -0.5 5.125 -3 7 C-5.89070012 6.74623625 -8.21627986 5.92790671 -11 5 C-11 4.67 -11 4.34 -11 4 C-10.37351563 3.87882813 -9.74703125 3.75765625 -9.1015625 3.6328125 C-8.28429687 3.46523437 -7.46703125 3.29765625 -6.625 3.125 C-5.81289062 2.96257812 -5.00078125 2.80015625 -4.1640625 2.6328125 C-1.81326077 2.13341068 -1.81326077 2.13341068 0 0 Z " fill="#17495B" transform="translate(259,180)"/>
<path d="M0 0 C2.64 0 5.28 0 8 0 C6.625 2.5 6.625 2.5 5 5 C3 5 3 5 1.375 3.625 C0 2 0 2 0 0 Z " fill="#B4B7BE" transform="translate(329,238)"/>
<path d="M0 0 C0.66 0 1.32 0 2 0 C1.59316505 2.35964273 1.10185661 3.85934088 -0.3125 5.8125 C-2 7 -2 7 -4.1875 6.6875 C-4.785625 6.460625 -5.38375 6.23375 -6 6 C-5.38125 5.7525 -4.7625 5.505 -4.125 5.25 C-1.64931313 3.79371361 -1.04874998 2.62187494 0 0 Z " fill="#BBBEC4" transform="translate(347,193)"/>
<path d="M0 0 C1.41623216 -0.05447047 2.83308191 -0.09300508 4.25 -0.125 C5.03890625 -0.14820312 5.8278125 -0.17140625 6.640625 -0.1953125 C9.20731941 0.0171622 10.7916067 0.71345895 13 2 C11.02253397 2.73080266 9.01927511 3.39421747 7 4 C6.34 3.67 5.68 3.34 5 3 C5 2.34 5 1.68 5 1 C3.35 1 1.7 1 0 1 C0 0.67 0 0.34 0 0 Z " fill="#111E27" transform="translate(290,89)"/>
<path d="M0 0 C0.33 0 0.66 0 1 0 C1.33 2.31 1.66 4.62 2 7 C4.31 7.33 6.62 7.66 9 8 C9 8.33 9 8.66 9 9 C4.545 9.495 4.545 9.495 0 10 C-1.6415049 6.7169902 -0.51888624 3.57454967 0 0 Z " fill="#205C6E" transform="translate(187,144)"/>
<path d="M0 0 C2.64 0 5.28 0 8 0 C7.67 0.99 7.34 1.98 7 3 C3.4375 4.1875 3.4375 4.1875 0 5 C0 3.33333333 0 1.66666667 0 0 Z " fill="#63D2DD" transform="translate(198,132)"/>
<path d="M0 0 C2.27795022 2.27795022 3.05219877 3.93787293 4 7 C3.625 9.3125 3.625 9.3125 3 11 C1.5 10 1.5 10 0 8 C-0.27345479 5.28153765 -0.13491285 2.74322801 0 0 Z " fill="#ECECF1" transform="translate(384,287)"/>
<path d="M0 0 C0.99 0.33 1.98 0.66 3 1 C3 3.31 3 5.62 3 8 C2.01 8.495 2.01 8.495 1 9 C0.34 8.34 -0.32 7.68 -1 7 C-0.625 4.5 -0.625 4.5 0 2 C0 1.34 0 0.68 0 0 Z " fill="#5DD9E5" transform="translate(309,143)"/>
<path d="M0 0 C0.99 0.33 1.98 0.66 3 1 C2.67 1.66 2.34 2.32 2 3 C2.66 3.33 3.32 3.66 4 4 C1.69 4.33 -0.62 4.66 -3 5 C-2.625 3.0625 -2.625 3.0625 -2 1 C-1.34 0.67 -0.68 0.34 0 0 Z " fill="#BABDC5" transform="translate(214,56)"/>
<path d="M0 0 C0.66 0.66 1.32 1.32 2 2 C1.68134222 5.29279709 0.45484649 6.86535088 -2 9 C-2.66 8.67 -3.32 8.34 -4 8 C-3.34 7.34 -2.68 6.68 -2 6 C-1.28591666 4.01643517 -0.61382258 2.01684563 0 0 Z " fill="#6DE9F5" transform="translate(210,140)"/>
<path d="M0 0 C2.04119788 1.61594832 4.04072937 3.2856382 6 5 C6 5.66 6 6.32 6 7 C3.625 6.75 3.625 6.75 1 6 C-0.375 4.0625 -0.375 4.0625 -1 2 C-0.67 1.34 -0.34 0.68 0 0 Z " fill="#0F4356" transform="translate(239,178)"/>
<path d="M0 0 C0.66 0 1.32 0 2 0 C2 2.31 2 4.62 2 7 C0.68 7 -0.64 7 -2 7 C-1.34 4.69 -0.68 2.38 0 0 Z " fill="#54E0EB" transform="translate(214,144)"/>
<path d="M0 0 C0.99 0.99 1.98 1.98 3 3 C2.34 3.66 1.68 4.32 1 5 C-1.0625 4.75 -1.0625 4.75 -3 4 C-3.33 3.34 -3.66 2.68 -4 2 C-2.68 1.34 -1.36 0.68 0 0 Z " fill="#1F3D52" transform="translate(289,128)"/>
<path d="M0 0 C0.99 0 1.98 0 3 0 C3.33 0.99 3.66 1.98 4 3 C3.34 3.66 2.68 4.32 2 5 C1.01 5 0.02 5 -1 5 C-0.67 3.35 -0.34 1.7 0 0 Z " fill="#B2B7BD" transform="translate(285,394)"/>
<path d="M0 0 C2.0625 0.4375 2.0625 0.4375 4 1 C2.25 4.875 2.25 4.875 0 6 C-0.38218767 4.34385343 -0.71395102 2.67542976 -1 1 C-0.67 0.67 -0.34 0.34 0 0 Z " fill="#C7CBD0" transform="translate(306,379)"/>
<path d="M0 0 C-0.66 1.32 -1.32 2.64 -2 4 C-4.31 3.67 -6.62 3.34 -9 3 C-3.2 0 -3.2 0 0 0 Z " fill="#9299A5" transform="translate(322,198)"/>
<path d="M0 0 C1.2065625 0.0309375 1.2065625 0.0309375 2.4375 0.0625 C2.4375 1.0525 2.4375 2.0425 2.4375 3.0625 C1.7775 3.7225 1.1175 4.3825 0.4375 5.0625 C-0.8825 3.7425 -2.2025 2.4225 -3.5625 1.0625 C-2.5625 0.0625 -2.5625 0.0625 0 0 Z " fill="#1B4B61" transform="translate(212.5625,131.9375)"/>
<path d="M0 0 C2.9375 0.375 2.9375 0.375 6 1 C6.33 1.66 6.66 2.32 7 3 C5.02 3.99 5.02 3.99 3 5 C2.01 3.35 1.02 1.7 0 0 Z " fill="#14202B" transform="translate(328,98)"/>
<path d="M0 0 C0 0.99 0 1.98 0 3 C-2.97 2.67 -5.94 2.34 -9 2 C-9 1.67 -9 1.34 -9 1 C-5.94152152 0.45627049 -3.11227195 0 0 0 Z " fill="#B7B9C2" transform="translate(289,58)"/>
<path d="M0 0 C-0.99 0.495 -0.99 0.495 -2 1 C-2 1.66 -2 2.32 -2 3 C-3.65 3 -5.3 3 -7 3 C-7.33 2.34 -7.66 1.68 -8 1 C-5.29120665 -0.35439668 -2.99066732 -0.06501451 0 0 Z " fill="#B3B4BA" transform="translate(280,400)"/>
<path d="M0 0 C0.66 0 1.32 0 2 0 C2 0.66 2 1.32 2 2 C2.928125 2.12375 2.928125 2.12375 3.875 2.25 C6 3 6 3 7.25 5.0625 C7.4975 5.701875 7.745 6.34125 8 7 C5.525 6.01 5.525 6.01 3 5 C3 4.34 3 3.68 3 3 C2.34 3 1.68 3 1 3 C0.67 2.01 0.34 1.02 0 0 Z " fill="#E6E6EB" transform="translate(359,364)"/>
<path d="M0 0 C1.65 0 3.3 0 5 0 C5.33 1.65 5.66 3.3 6 5 C3.5625 4.1875 3.5625 4.1875 1 3 C0.67 2.01 0.34 1.02 0 0 Z " fill="#AEB0BC" transform="translate(218,236)"/>
<path d="M0 0 C-1.375 2 -1.375 2 -3 4 C-3.66 4 -4.32 4 -5 4 C-5.33 2.68 -5.66 1.36 -6 0 C-3 -1 -3 -1 0 0 Z " fill="#13202E" transform="translate(342,187)"/>
<path d="M0 0 C0 0.33 0 0.66 0 1 C-0.804375 1.12375 -1.60875 1.2475 -2.4375 1.375 C-3.7059375 1.684375 -3.7059375 1.684375 -5 2 C-5.33 2.66 -5.66 3.32 -6 4 C-8 3 -8 3 -10 0 C-6.7169902 -1.6415049 -3.57454967 -0.51888624 0 0 Z " fill="#153E52" transform="translate(216,153)"/>
<path d="M0 0 C0 2.83967231 -0.40267181 5.23735711 -1 8 C-1.66 8 -2.32 8 -3 8 C-3.36923077 3.44615385 -3.36923077 3.44615385 -1.5 1.1875 C-1.005 0.795625 -0.51 0.40375 0 0 Z " fill="#61E2ED" transform="translate(289,134)"/>
<path d="M0 0 C0.66 0.33 1.32 0.66 2 1 C0.8125 3 0.8125 3 -1 5 C-3.6875 5.25 -3.6875 5.25 -6 5 C-4.06745228 2.9754262 -2.36841312 1.57894208 0 0 Z " fill="#DEE2E7" transform="translate(162,93)"/>
</svg>
