<?xml version="1.0" encoding="UTF-8"?>
<svg xmlns="http://www.w3.org/2000/svg" xmlns:xlink="http://www.w3.org/1999/xlink" width="58px" height="48px" viewBox="0 0 57 48" version="1.1">
<g id="surface1">
<path style=" stroke:none;fill-rule:nonzero;fill:rgb(1.960784%,1.960784%,1.960784%);fill-opacity:1;" d="M 28.605469 3.324219 C 28.714844 3.324219 28.824219 3.324219 28.9375 3.324219 C 30.5625 3.328125 32.082031 3.402344 33.640625 3.902344 C 33.726562 3.929688 33.8125 3.957031 33.898438 3.980469 C 34.441406 4.148438 34.976562 4.332031 35.507812 4.535156 C 35.621094 4.578125 35.730469 4.621094 35.84375 4.664062 C 36.804688 5.050781 37.761719 5.535156 38.621094 6.117188 C 38.957031 6.113281 39.070312 5.984375 39.320312 5.75 C 39.425781 5.640625 39.53125 5.53125 39.636719 5.417969 C 39.746094 5.304688 39.859375 5.1875 39.96875 5.070312 C 40.023438 5.015625 40.078125 4.960938 40.132812 4.902344 C 40.386719 4.644531 40.652344 4.40625 40.929688 4.171875 C 41.117188 4.007812 41.117188 4.007812 41.300781 3.820312 C 41.636719 3.492188 41.753906 3.378906 42.238281 3.371094 C 42.566406 3.480469 42.566406 3.480469 42.777344 3.796875 C 42.933594 4.464844 42.996094 5.160156 43.070312 5.839844 C 43.199219 6.953125 43.347656 8.058594 43.5 9.167969 C 43.546875 9.519531 43.59375 9.867188 43.640625 10.21875 C 43.800781 11.390625 43.960938 12.566406 44.128906 13.738281 C 44.390625 15.582031 44.390625 15.582031 44.191406 16.066406 C 43.738281 16.363281 43.257812 16.199219 42.75 16.09375 C 42.507812 16.035156 42.269531 15.972656 42.03125 15.910156 C 41.941406 15.886719 41.851562 15.863281 41.761719 15.839844 C 40.992188 15.640625 40.222656 15.425781 39.457031 15.207031 C 38.792969 15.023438 38.125 14.855469 37.453125 14.699219 C 36.957031 14.582031 36.472656 14.457031 35.984375 14.316406 C 35.449219 14.167969 34.910156 14.035156 34.367188 13.914062 C 34.1875 13.871094 34.007812 13.828125 33.828125 13.785156 C 33.738281 13.765625 33.644531 13.746094 33.550781 13.726562 C 33.003906 13.59375 32.625 13.46875 32.289062 12.976562 C 32.285156 12.546875 32.460938 12.316406 32.738281 12.007812 C 32.800781 11.933594 32.859375 11.863281 32.925781 11.792969 C 33.121094 11.605469 33.121094 11.605469 33.34375 11.492188 C 33.574219 11.402344 33.574219 11.402344 33.640625 11.078125 C 33.816406 10.898438 33.816406 10.898438 34.035156 10.714844 C 34.332031 10.460938 34.617188 10.203125 34.886719 9.917969 C 33.601562 9.140625 32 8.710938 30.523438 8.546875 C 30.421875 8.535156 30.320312 8.523438 30.210938 8.511719 C 27.726562 8.269531 25.214844 8.613281 22.945312 9.707031 C 22.859375 9.746094 22.769531 9.789062 22.679688 9.828125 C 21.269531 10.515625 19.011719 11.792969 18.273438 13.292969 C 18.203125 13.292969 18.136719 13.292969 18.066406 13.292969 C 18.039062 13.347656 18.015625 13.40625 17.988281 13.464844 C 17.824219 13.777344 17.648438 14.0625 17.441406 14.347656 C 17.375 14.347656 17.304688 14.347656 17.234375 14.347656 C 17.207031 14.421875 17.183594 14.492188 17.15625 14.570312 C 17.011719 14.914062 16.832031 15.214844 16.644531 15.535156 C 15.570312 17.410156 14.886719 19.550781 14.847656 21.730469 C 14.84375 21.847656 14.839844 21.964844 14.835938 22.082031 C 14.78125 24.695312 15.402344 27.199219 16.671875 29.464844 C 16.796875 29.707031 16.875 29.902344 16.921875 30.171875 C 16.992188 30.171875 17.058594 30.171875 17.132812 30.171875 C 17.257812 30.347656 17.257812 30.347656 17.402344 30.585938 C 17.703125 31.0625 18.046875 31.464844 18.425781 31.875 C 18.585938 32.070312 18.585938 32.070312 18.585938 32.28125 C 18.652344 32.28125 18.722656 32.28125 18.792969 32.28125 C 18.792969 32.351562 18.792969 32.421875 18.792969 32.492188 C 18.859375 32.492188 18.929688 32.492188 19 32.492188 C 19 32.5625 19 32.632812 19 32.703125 C 19.054688 32.726562 19.113281 32.75 19.167969 32.777344 C 19.5 32.960938 19.757812 33.183594 20.039062 33.441406 C 20.039062 33.511719 20.039062 33.582031 20.039062 33.652344 C 20.113281 33.679688 20.191406 33.707031 20.269531 33.738281 C 20.558594 33.863281 20.769531 34.007812 21.019531 34.199219 C 21.65625 34.664062 22.339844 35.003906 23.050781 35.339844 C 23.152344 35.390625 23.253906 35.4375 23.359375 35.488281 C 24.132812 35.835938 24.917969 36.058594 25.742188 36.242188 C 25.886719 36.273438 26.035156 36.308594 26.179688 36.347656 C 26.992188 36.539062 27.800781 36.546875 28.628906 36.546875 C 28.742188 36.546875 28.742188 36.546875 28.859375 36.546875 C 30.195312 36.542969 31.425781 36.386719 32.703125 35.972656 C 32.78125 35.949219 32.859375 35.925781 32.9375 35.898438 C 34.042969 35.539062 35.230469 35.042969 36.15625 34.3125 C 36.339844 34.179688 36.339844 34.179688 36.648438 34.179688 C 36.648438 34.109375 36.648438 34.039062 36.648438 33.96875 C 36.824219 33.808594 36.824219 33.808594 37.050781 33.640625 C 37.128906 33.582031 37.203125 33.527344 37.277344 33.46875 C 37.480469 33.335938 37.480469 33.335938 37.6875 33.335938 C 37.6875 33.265625 37.6875 33.195312 37.6875 33.125 C 37.792969 33.125 37.894531 33.125 38 33.125 C 38.027344 33.058594 38.054688 32.992188 38.085938 32.921875 C 38.207031 32.703125 38.207031 32.703125 38.519531 32.597656 C 38.59375 32.460938 38.660156 32.316406 38.726562 32.175781 C 38.839844 32.035156 38.957031 31.898438 39.078125 31.765625 C 39.304688 31.507812 39.511719 31.257812 39.695312 30.960938 C 39.75 30.875 39.808594 30.789062 39.867188 30.699219 C 39.9375 30.699219 40.007812 30.699219 40.078125 30.699219 C 40.089844 30.640625 40.097656 30.578125 40.113281 30.515625 C 40.1875 30.246094 40.304688 30.054688 40.453125 29.816406 C 41.152344 28.648438 41.632812 27.503906 42.011719 26.199219 C 42.324219 25.144531 42.324219 25.144531 42.566406 24.898438 C 43.585938 24.757812 44.628906 25.050781 45.621094 25.261719 C 45.804688 25.300781 45.992188 25.335938 46.179688 25.363281 C 46.269531 25.378906 46.363281 25.394531 46.457031 25.410156 C 46.542969 25.425781 46.625 25.4375 46.710938 25.449219 C 46.996094 25.554688 47.085938 25.691406 47.242188 25.953125 C 47.507812 28.105469 45.796875 30.941406 44.75 32.703125 C 44.683594 32.8125 44.621094 32.921875 44.554688 33.035156 C 44.183594 33.648438 43.773438 34.179688 43.296875 34.707031 C 43.191406 34.832031 43.085938 34.957031 42.984375 35.082031 C 41.976562 36.246094 40.898438 37.285156 39.660156 38.1875 C 39.59375 38.242188 39.527344 38.292969 39.457031 38.347656 C 38.9375 38.746094 38.367188 39.046875 37.792969 39.347656 C 37.730469 39.382812 37.667969 39.414062 37.605469 39.449219 C 34.867188 40.910156 31.957031 41.734375 28.851562 41.710938 C 28.597656 41.710938 28.34375 41.710938 28.085938 41.714844 C 26.492188 41.714844 24.972656 41.480469 23.445312 41.003906 C 23.339844 40.972656 23.234375 40.941406 23.125 40.90625 C 21.386719 40.367188 19.359375 39.632812 17.960938 38.398438 C 17.960938 38.332031 17.960938 38.261719 17.960938 38.1875 C 17.859375 38.1875 17.757812 38.1875 17.648438 38.1875 C 17.648438 38.121094 17.648438 38.050781 17.648438 37.976562 C 17.59375 37.953125 17.539062 37.925781 17.480469 37.898438 C 17.175781 37.734375 16.894531 37.550781 16.613281 37.34375 C 16.613281 37.277344 16.613281 37.207031 16.613281 37.132812 C 16.554688 37.109375 16.496094 37.082031 16.433594 37.054688 C 15.9375 36.777344 15.558594 36.320312 15.160156 35.914062 C 15.109375 35.863281 15.0625 35.816406 15.011719 35.765625 C 14.203125 34.945312 13.503906 34.089844 12.890625 33.109375 C 12.78125 32.929688 12.664062 32.757812 12.546875 32.582031 C 11.160156 30.453125 10.425781 27.914062 9.96875 25.425781 C 9.941406 25.289062 9.941406 25.289062 9.914062 25.152344 C 9.851562 24.691406 9.84375 24.242188 9.84375 23.777344 C 9.839844 23.628906 9.839844 23.628906 9.839844 23.480469 C 9.839844 23.273438 9.839844 23.066406 9.839844 22.859375 C 9.835938 22.546875 9.835938 22.238281 9.832031 21.925781 C 9.824219 20.699219 9.910156 19.554688 10.175781 18.355469 C 10.195312 18.257812 10.214844 18.160156 10.238281 18.058594 C 10.289062 17.824219 10.347656 17.59375 10.410156 17.359375 C 10.441406 17.238281 10.441406 17.238281 10.472656 17.109375 C 10.980469 15.261719 11.777344 13.574219 12.8125 11.96875 C 12.972656 11.722656 13.121094 11.46875 13.269531 11.214844 C 13.34375 11.101562 13.421875 10.984375 13.496094 10.867188 C 13.566406 10.867188 13.632812 10.867188 13.703125 10.867188 C 13.730469 10.804688 13.757812 10.746094 13.785156 10.683594 C 13.921875 10.421875 14.082031 10.230469 14.277344 10.015625 C 14.488281 9.777344 14.667969 9.554688 14.847656 9.285156 C 14.914062 9.285156 14.984375 9.285156 15.054688 9.285156 C 15.089844 9.179688 15.125 9.074219 15.160156 8.96875 C 15.226562 8.96875 15.296875 8.96875 15.367188 8.96875 C 15.367188 8.898438 15.367188 8.828125 15.367188 8.757812 C 15.433594 8.757812 15.503906 8.757812 15.574219 8.757812 C 15.609375 8.652344 15.640625 8.546875 15.675781 8.441406 C 15.746094 8.441406 15.816406 8.441406 15.886719 8.441406 C 15.886719 8.371094 15.886719 8.300781 15.886719 8.230469 C 16.105469 8.023438 16.105469 8.023438 16.390625 7.792969 C 16.484375 7.71875 16.578125 7.640625 16.675781 7.5625 C 16.921875 7.382812 16.921875 7.382812 17.132812 7.382812 C 17.132812 7.316406 17.132812 7.246094 17.132812 7.171875 C 17.824219 6.570312 18.605469 6.113281 19.414062 5.695312 C 19.476562 5.664062 19.539062 5.632812 19.601562 5.597656 C 20.882812 4.921875 22.171875 4.335938 23.5625 3.9375 C 23.632812 3.917969 23.699219 3.894531 23.769531 3.875 C 24.015625 3.808594 24.257812 3.75 24.503906 3.691406 C 24.671875 3.652344 24.671875 3.652344 24.84375 3.609375 C 26.097656 3.335938 27.328125 3.316406 28.605469 3.324219 Z M 28.605469 3.324219 "/>
<path style=" stroke:none;fill-rule:nonzero;fill:rgb(27.450982%,27.450982%,27.450982%);fill-opacity:1;" d="M 41.425781 3.691406 C 41.425781 4.042969 41.378906 4.226562 41.21875 4.535156 C 40.921875 4.761719 40.648438 4.890625 40.285156 4.957031 C 40.25 5.097656 40.214844 5.238281 40.179688 5.378906 C 40.113281 5.378906 40.042969 5.378906 39.972656 5.378906 C 39.972656 5.449219 39.972656 5.519531 39.972656 5.589844 C 39.726562 5.867188 39.726562 5.867188 39.453125 6.117188 C 39.386719 6.117188 39.316406 6.117188 39.246094 6.117188 C 39.210938 6.1875 39.175781 6.257812 39.140625 6.328125 C 38.9375 6.328125 38.730469 6.328125 38.519531 6.328125 C 38.554688 6.261719 38.585938 6.191406 38.621094 6.117188 C 38.679688 6.109375 38.738281 6.101562 38.800781 6.089844 C 39.164062 5.972656 39.378906 5.695312 39.636719 5.417969 C 39.746094 5.304688 39.855469 5.1875 39.96875 5.074219 C 40.019531 5.015625 40.074219 4.960938 40.128906 4.902344 C 40.390625 4.640625 40.667969 4.398438 40.945312 4.15625 C 41.113281 4.007812 41.269531 3.855469 41.425781 3.691406 Z M 41.425781 3.691406 "/>
<path style=" stroke:none;fill-rule:nonzero;fill:rgb(22.745098%,21.960784%,22.352941%);fill-opacity:1;" d="M 41.425781 3.691406 C 41.425781 4.042969 41.378906 4.226562 41.21875 4.535156 C 40.914062 4.765625 40.769531 4.851562 40.386719 4.851562 C 40.539062 4.488281 40.726562 4.289062 41.023438 4.035156 C 41.097656 3.96875 41.175781 3.90625 41.25 3.839844 C 41.339844 3.765625 41.339844 3.765625 41.425781 3.691406 Z M 41.425781 3.691406 "/>
<path style=" stroke:none;fill-rule:nonzero;fill:rgb(35.294119%,34.901962%,35.294119%);fill-opacity:1;" d="M 16.09375 8.125 C 16.128906 8.226562 16.160156 8.332031 16.195312 8.441406 C 15.84375 8.828125 15.53125 9.070312 15.054688 9.285156 C 15.089844 9.179688 15.125 9.074219 15.160156 8.96875 C 15.226562 8.96875 15.296875 8.96875 15.367188 8.96875 C 15.367188 8.898438 15.367188 8.828125 15.367188 8.757812 C 15.433594 8.757812 15.503906 8.757812 15.574219 8.757812 C 15.609375 8.652344 15.640625 8.546875 15.675781 8.441406 C 15.746094 8.441406 15.816406 8.441406 15.886719 8.441406 C 15.886719 8.371094 15.886719 8.300781 15.886719 8.230469 C 15.953125 8.195312 16.023438 8.160156 16.09375 8.125 Z M 16.09375 8.125 "/>
<path style=" stroke:none;fill-rule:nonzero;fill:rgb(35.686275%,34.509805%,34.901962%);fill-opacity:1;" d="M 18.480469 6.328125 C 18.480469 6.433594 18.480469 6.539062 18.480469 6.644531 C 17.972656 7.160156 17.972656 7.160156 17.558594 7.207031 C 17.449219 7.191406 17.449219 7.191406 17.339844 7.171875 C 18.148438 6.328125 18.148438 6.328125 18.480469 6.328125 Z M 18.480469 6.328125 "/>
<path style=" stroke:none;fill-rule:nonzero;fill:rgb(37.254903%,36.078432%,36.470589%);fill-opacity:1;" d="M 10.175781 18.355469 C 10.210938 18.355469 10.242188 18.355469 10.277344 18.355469 C 10.28125 18.617188 10.285156 18.875 10.285156 19.132812 C 10.285156 19.207031 10.285156 19.28125 10.289062 19.355469 C 10.289062 19.914062 10.289062 19.914062 10.175781 20.148438 C 10.105469 20.148438 10.039062 20.148438 9.96875 20.148438 C 9.980469 19.929688 9.996094 19.710938 10.011719 19.488281 C 10.019531 19.367188 10.03125 19.246094 10.039062 19.121094 C 10.0625 18.851562 10.101562 18.613281 10.175781 18.355469 Z M 10.175781 18.355469 "/>
<path style=" stroke:none;fill-rule:nonzero;fill:rgb(29.019609%,28.627452%,29.019609%);fill-opacity:1;" d="M 34.46875 10.339844 C 34.503906 10.40625 34.539062 10.476562 34.574219 10.550781 C 34.367188 10.828125 34.164062 11.105469 33.949219 11.394531 C 33.8125 11.324219 33.675781 11.253906 33.535156 11.183594 C 33.84375 10.902344 34.152344 10.625 34.46875 10.339844 Z M 34.46875 10.339844 "/>
<path style=" stroke:none;fill-rule:nonzero;fill:rgb(31.764707%,31.764707%,31.764707%);fill-opacity:1;" d="M 36.339844 34.179688 C 36.40625 34.214844 36.476562 34.25 36.546875 34.285156 C 36.339844 34.53125 36.136719 34.773438 35.921875 35.023438 C 35.753906 34.988281 35.582031 34.953125 35.40625 34.917969 C 35.53125 34.664062 35.628906 34.621094 35.871094 34.488281 C 36.121094 34.359375 36.121094 34.359375 36.339844 34.179688 Z M 36.339844 34.179688 "/>
<path style=" stroke:none;fill-rule:nonzero;fill:rgb(46.27451%,45.882353%,46.27451%);fill-opacity:1;" d="M 41.839844 26.796875 C 41.992188 27.207031 41.972656 27.644531 41.839844 28.0625 C 41.574219 28.273438 41.574219 28.273438 41.324219 28.378906 C 41.496094 27.851562 41.667969 27.324219 41.839844 26.796875 Z M 41.839844 26.796875 "/>
<path style=" stroke:none;fill-rule:nonzero;fill:rgb(32.549021%,32.549021%,32.549021%);fill-opacity:1;" d="M 38.832031 32.070312 C 38.832031 32.445312 38.765625 32.503906 38.53125 32.777344 C 38.476562 32.839844 38.421875 32.90625 38.363281 32.976562 C 38.207031 33.125 38.207031 33.125 38 33.125 C 38.085938 32.921875 38.085938 32.921875 38.207031 32.703125 C 38.308594 32.667969 38.414062 32.632812 38.519531 32.597656 C 38.636719 32.390625 38.636719 32.390625 38.726562 32.175781 C 38.761719 32.140625 38.796875 32.105469 38.832031 32.070312 Z M 38.832031 32.070312 "/>
<path style=" stroke:none;fill-rule:nonzero;fill:rgb(30.980393%,29.803923%,30.588236%);fill-opacity:1;" d="M 13.808594 10.550781 C 13.84375 10.617188 13.878906 10.6875 13.914062 10.761719 C 13.980469 10.796875 14.050781 10.828125 14.121094 10.867188 C 13.976562 11.023438 13.976562 11.023438 13.808594 11.183594 C 13.738281 11.183594 13.671875 11.183594 13.601562 11.183594 C 13.566406 11.253906 13.53125 11.320312 13.496094 11.394531 C 13.429688 11.324219 13.359375 11.253906 13.289062 11.183594 C 13.359375 11.078125 13.425781 10.972656 13.496094 10.867188 C 13.566406 10.867188 13.632812 10.867188 13.703125 10.867188 C 13.738281 10.761719 13.773438 10.65625 13.808594 10.550781 Z M 13.808594 10.550781 "/>
<path style=" stroke:none;fill-rule:nonzero;fill:rgb(36.862746%,36.470589%,36.862746%);fill-opacity:1;" d="M 40.285156 4.746094 C 40.351562 4.78125 40.421875 4.816406 40.492188 4.851562 C 40.347656 5.117188 40.347656 5.117188 40.179688 5.378906 C 40.113281 5.378906 40.042969 5.378906 39.972656 5.378906 C 39.9375 5.449219 39.902344 5.519531 39.867188 5.589844 C 39.765625 5.554688 39.664062 5.523438 39.558594 5.484375 C 39.796875 5.242188 40.035156 5 40.285156 4.746094 Z M 40.285156 4.746094 "/>
<path style=" stroke:none;fill-rule:nonzero;fill:rgb(31.764707%,31.37255%,31.37255%);fill-opacity:1;" d="M 40.492188 29.855469 C 40.550781 30.074219 40.59375 30.261719 40.59375 30.488281 C 40.425781 30.558594 40.253906 30.628906 40.078125 30.699219 C 40.140625 30.34375 40.269531 30.132812 40.492188 29.855469 Z M 40.492188 29.855469 "/>
<path style=" stroke:none;fill-rule:nonzero;fill:rgb(35.294119%,34.509805%,34.901962%);fill-opacity:1;" d="M 17.132812 7.382812 C 17.132812 7.453125 17.132812 7.523438 17.132812 7.59375 C 16.839844 7.878906 16.839844 7.878906 16.507812 8.125 C 16.40625 8.089844 16.300781 8.054688 16.195312 8.019531 C 16.3125 7.910156 16.429688 7.804688 16.546875 7.699219 C 16.644531 7.613281 16.644531 7.613281 16.746094 7.523438 C 16.921875 7.382812 16.921875 7.382812 17.132812 7.382812 Z M 17.132812 7.382812 "/>
<path style=" stroke:none;fill-rule:nonzero;fill:rgb(37.254903%,37.254903%,37.254903%);fill-opacity:1;" d="M 24.503906 3.796875 C 24.46875 3.902344 24.433594 4.007812 24.398438 4.113281 C 24.308594 4.113281 24.21875 4.109375 24.125 4.109375 C 23.789062 4.113281 23.480469 4.15625 23.152344 4.21875 C 23.378906 3.992188 23.46875 3.960938 23.769531 3.890625 C 23.839844 3.871094 23.914062 3.855469 23.988281 3.835938 C 24.191406 3.796875 24.191406 3.796875 24.503906 3.796875 Z M 24.503906 3.796875 "/>
<path style=" stroke:none;fill-rule:nonzero;fill:rgb(41.960785%,40.784314%,41.176471%);fill-opacity:1;" d="M 33.328125 11.394531 C 33.394531 11.429688 33.464844 11.464844 33.535156 11.5 C 33.535156 11.601562 33.535156 11.707031 33.535156 11.816406 C 33.398438 11.816406 33.261719 11.816406 33.121094 11.816406 C 33.085938 11.917969 33.050781 12.023438 33.015625 12.132812 C 32.914062 12.097656 32.8125 12.0625 32.703125 12.027344 C 32.910156 11.816406 33.117188 11.609375 33.328125 11.394531 Z M 33.328125 11.394531 "/>
<path style=" stroke:none;fill-rule:nonzero;fill:rgb(39.607844%,39.607844%,39.607844%);fill-opacity:1;" d="M 37.480469 33.335938 C 37.550781 33.335938 37.617188 33.335938 37.6875 33.335938 C 37.625 33.535156 37.625 33.535156 37.480469 33.757812 C 37.15625 33.890625 37.15625 33.890625 36.859375 33.96875 C 37.066406 33.757812 37.273438 33.546875 37.480469 33.335938 Z M 37.480469 33.335938 "/>
<path style=" stroke:none;fill-rule:nonzero;fill:rgb(36.470589%,35.294119%,36.078432%);fill-opacity:1;" d="M 38.832031 14.664062 C 39.105469 14.804688 39.378906 14.941406 39.660156 15.085938 C 39.203125 15.203125 39.050781 15.148438 38.621094 14.980469 C 38.691406 14.875 38.761719 14.769531 38.832031 14.664062 Z M 38.832031 14.664062 "/>
</g>
</svg>
