<?xml version="1.0" encoding="UTF-8"?>
<svg version="1.1" xmlns="http://www.w3.org/2000/svg" width="500" height="500">
<path d="M0 0 C2.01731369 0.75466559 3.97665007 1.5876953 5.94213867 2.46850586 C7.03709656 2.93945679 7.03709656 2.93945679 8.1541748 3.41992188 C10.45663227 4.41788724 12.74734246 5.43907457 15.03588867 6.46850586 C15.76372559 6.79447754 16.4915625 7.12044922 17.24145508 7.45629883 C23.09380677 10.08729315 28.91398143 12.7867049 34.73364258 15.48901367 C44.18001501 19.8689054 53.67834054 24.02767017 63.32373047 27.95043945 C67.60626461 29.69361865 71.82746285 31.55403545 76.03588867 33.46850586 C78.27910227 34.4769325 80.52262229 35.48467765 82.76635742 36.49194336 C83.99490609 37.04395317 85.22342125 37.59603755 86.4519043 38.14819336 C87.38450073 38.5672998 87.38450073 38.5672998 88.3359375 38.99487305 C89.58545264 39.55667807 90.83480406 40.11884737 92.08398438 40.68139648 C98.7485455 43.68207407 105.42281893 46.64707556 112.14916992 49.50756836 C117.65804578 51.85560119 123.09743153 54.32537219 128.52612305 56.85229492 C132.52932241 58.69572702 136.55261064 60.48965916 140.58276367 62.27319336 C141.3311853 62.60458313 142.07960693 62.9359729 142.85070801 63.27740479 C145.9286746 64.63937676 149.00725001 65.99995964 152.08666992 67.35864258 C156.64563379 69.37114941 161.19828952 71.39690207 165.74316406 73.44104004 C167.30216326 74.1396928 168.86328919 74.83361504 170.42626953 75.52331543 C172.7656338 76.55740642 175.09659247 77.60865351 177.42651367 78.66381836 C178.13330261 78.97205536 178.84009155 79.28029236 179.56829834 79.59786987 C183.83702357 81.55739259 186.50792038 83.48770959 189.03588867 87.46850586 C189.66353953 91.23441103 189.48544326 92.80738861 187.32910156 95.97851562 C184.91973859 98.59462261 183.04301881 99.80221121 179.84448242 101.30834961 C178.77955566 101.81350098 177.71462891 102.31865234 176.61743164 102.83911133 C175.43552246 103.37681152 174.25361328 103.91451172 173.03588867 104.46850586 C172.09244598 104.89839813 172.09244598 104.89839813 171.12994385 105.3369751 C166.13566564 107.60530682 161.11833311 109.82021427 156.09838867 112.03100586 C152.88955238 113.44914031 149.68152485 114.86910097 146.47338867 116.28881836 C145.67405411 116.64219772 144.87471954 116.99557709 144.05116272 117.35966492 C136.55249724 120.67660751 129.07487077 124.03944702 121.59838867 127.40600586 C111.6059995 131.89918641 101.57555678 136.28872264 91.48901367 140.56616211 C87.66338752 142.19016971 83.86673143 143.87410279 80.07202148 145.56884766 C77.49529505 146.70736527 74.89454997 147.78043868 72.28588867 148.84350586 C68.23234675 150.52221818 64.23325556 152.27924081 60.25854492 154.13647461 C52.72535391 157.62848386 45.1431857 161.00606201 37.55322266 164.37255859 C35.2364245 165.40022354 32.92028579 166.42936287 30.60424805 167.45874023 C27.57077062 168.8065947 24.53564646 170.15063895 21.49926758 171.49194336 C18.50684423 172.81412937 15.52041577 174.14878018 12.53735352 175.49194336 C11.11113103 176.12876749 9.68486346 176.76549064 8.25854492 177.40209961 C7.29140816 177.84210548 7.29140816 177.84210548 6.30473328 178.29100037 C1.49019743 180.42837629 -3.63700067 182.3150622 -8.96411133 181.46850586 C-11.19458008 180.14428711 -11.19458008 180.14428711 -12.96411133 178.46850586 C-15.16971495 166.95035361 -5.10694296 153.45895511 0.03588867 143.46850586 C0.72376465 142.12973389 0.72376465 142.12973389 1.42553711 140.76391602 C4.44749722 134.89476216 7.50689461 129.04675044 10.59594727 123.21264648 C11.93055921 120.66923546 13.23084029 118.11119991 14.52416992 115.54663086 C15.27687797 114.10329702 16.03070316 112.66054497 16.78588867 111.21850586 C17.10162842 110.56946289 17.41736816 109.92041992 17.74267578 109.25170898 C20.10963082 104.83993951 22.49102876 103.37578373 27.08618164 101.96606445 C35.83697325 99.73289224 44.79511877 99.08505901 53.76660156 98.28857422 C59.93802426 97.72168286 66.03985763 96.93412949 72.16088867 95.96850586 C81.75714768 94.4550528 91.36837582 93.40505348 101.03588867 92.46850586 C103.09843158 92.26059775 105.16094147 92.05236127 107.22338867 91.84350586 C108.48151367 91.71975586 109.73963867 91.59600586 111.03588867 91.46850586 C111.03588867 90.80850586 111.03588867 90.14850586 111.03588867 89.46850586 C102.44683525 88.45169591 93.85666182 87.44529582 85.26416016 86.45800781 C83.12421409 86.21161779 80.98440594 85.96402741 78.84472656 85.71533203 C73.05532737 85.04280299 67.2650804 84.38092938 61.47169495 83.7437439 C58.42878498 83.40762306 55.38670125 83.06435636 52.34469604 82.72015381 C50.86727904 82.55464264 49.38951888 82.39216162 47.91140747 82.23297119 C28.34209944 80.12161124 28.34209944 80.12161124 21.03588867 76.46850586 C20.103628 74.9394796 19.24036885 73.36813972 18.41088867 71.78100586 C16.08053432 67.39179475 13.66243095 63.07499181 11.16088867 58.78100586 C3.98639601 46.33447799 -2.08608386 33.30306996 -8.1184082 20.2746582 C-8.84525032 18.72235508 -9.59756543 17.18202463 -10.35473633 15.64428711 C-12.54303271 11.1058837 -13.68633832 7.6272701 -12.96411133 2.46850586 C-10.57885229 -2.15293352 -4.38466423 -1.18650268 0 0 Z " fill="#36485B" transform="translate(161.964111328125,159.531494140625)"/>
<path d="M0 0 C1.98 0 3.96 0 6 0 C2.3155428 3.12217541 -1.8224213 4.88681817 -6.1953125 6.828125 C-6.98396698 7.18138855 -7.77262146 7.5346521 -8.58517456 7.89862061 C-10.2465399 8.64074771 -11.90909469 9.38021707 -13.57275391 10.1171875 C-16.12708006 11.25092323 -18.67492539 12.39840838 -21.22265625 13.546875 C-22.83816675 14.26646729 -24.45403994 14.985246 -26.0703125 15.703125 C-26.83489777 16.04885559 -27.59948303 16.39458618 -28.38723755 16.75079346 C-30.23273323 17.56109819 -32.11403808 18.28894748 -34 19 C-34.66 18.67 -35.32 18.34 -36 18 C-35.32453125 17.68546875 -34.6490625 17.3709375 -33.953125 17.046875 C-28.41624448 14.46309089 -28.41624448 14.46309089 -23.6875 10.6875 C-22 9 -22 9 -19.25 8.75 C-18.5075 8.8325 -17.765 8.915 -17 9 C-16.67 8.34 -16.34 7.68 -16 7 C-12.9375 6.375 -12.9375 6.375 -10 6 C-10 5.01 -10 4.02 -10 3 C-7.42786866 1.38050989 -6.32330841 0.95591249 -3.25 1.375 C-2.5075 1.58125 -1.765 1.7875 -1 2 C-0.67 1.34 -0.34 0.68 0 0 Z " fill="#A5AEB6" transform="translate(306,273)"/>
<path d="M0 0 C0.99 0.66 1.98 1.32 3 2 C1.02 2.33 -0.96 2.66 -3 3 C-3 2.34 -3 1.68 -3 1 C-6.24983135 2.08784968 -6.24983135 2.08784968 -9 4 C-9.04092937 6.33297433 -9.04241723 8.66705225 -9 11 C-7.68 11.66 -6.36 12.32 -5 13 C-5 15.64 -5 18.28 -5 21 C-9.45821352 16.95389025 -10.79670413 12.06684134 -11.375 6.1875 C-11 3 -11 3 -10 1.0625 C-6.83245911 -0.6202561 -3.5086342 -0.54468716 0 0 Z " fill="#B0B7BD" transform="translate(160,159)"/>
<path d="M0 0 C1.51754003 2.41021064 2.02316906 3.68335622 1.8125 6.5625 C0.93458361 9.19624918 0.23081595 10.36978834 -2 12 C-2.99 12 -3.98 12 -5 12 C-4.54738642 10.56068883 -4.08767021 9.12361001 -3.625 7.6875 C-3.24214844 6.48673828 -3.24214844 6.48673828 -2.8515625 5.26171875 C-2 3 -2 3 0 0 Z " fill="#6F7A86" transform="translate(164,300)"/>
<path d="M0 0 C1.98 0 3.96 0 6 0 C3.07880232 2.41847994 0.5084932 3.68706766 -3.125 4.75 C-4.42824219 5.14445312 -4.42824219 5.14445312 -5.7578125 5.546875 C-8 6 -8 6 -10 5 C-10 4.34 -10 3.68 -10 3 C-7.42786866 1.38050989 -6.32330841 0.95591249 -3.25 1.375 C-2.5075 1.58125 -1.765 1.7875 -1 2 C-0.67 1.34 -0.34 0.68 0 0 Z " fill="#717C89" transform="translate(306,273)"/>
<path d="M0 0 C0.66 0 1.32 0 2 0 C2.33 0.99 2.66 1.98 3 3 C1.06891037 4.03290841 -0.870118 5.05098672 -2.8125 6.0625 C-3.89144531 6.63097656 -4.97039062 7.19945312 -6.08203125 7.78515625 C-9 9 -9 9 -12 8 C-12 7.34 -12 6.68 -12 6 C-10.35 6 -8.7 6 -7 6 C-6.34 4.68 -5.68 3.36 -5 2 C-3.35 2.33 -1.7 2.66 0 3 C0 2.01 0 1.02 0 0 Z " fill="#788491" transform="translate(344,255)"/>
<path d="M0 0 C0.68707555 2.49064888 1 4.37886292 1 7 C0.34 7 -0.32 7 -1 7 C-1.33 8.32 -1.66 9.64 -2 11 C-2.66 11 -3.32 11 -4 11 C-4 11.66 -4 12.32 -4 13 C-4.66 13 -5.32 13 -6 13 C-4.58707905 8.1725201 -2.57025846 4.2837641 0 0 Z " fill="#7F8893" transform="translate(178,273)"/>
<path d="M0 0 C1.46067199 0.45082469 2.91848032 0.91093537 4.375 1.375 C5.18710938 1.63023437 5.99921875 1.88546875 6.8359375 2.1484375 C9 3 9 3 11 5 C9.02 5.33 7.04 5.66 5 6 C4.67 5.34 4.34 4.68 4 4 C1.47266765 3.34444881 1.47266765 3.34444881 -1 3 C-0.67 2.01 -0.34 1.02 0 0 Z M-1 4 C1 5 1 5 1 5 Z " fill="#727C8A" transform="translate(249,199)"/>
<path d="M0 0 C3.85025879 0.60355408 6.86101159 1.76772603 10.3125 3.5625 C11.19550781 4.01753906 12.07851563 4.47257813 12.98828125 4.94140625 C13.65214844 5.29074219 14.31601562 5.64007813 15 6 C13 7 13 7 10.9765625 6.44140625 C10.20054687 6.15136719 9.42453125 5.86132812 8.625 5.5625 C5.35582162 4.34339167 3.61643023 4 0 4 C0 2.68 0 1.36 0 0 Z " fill="#A0A9B1" transform="translate(267,207)"/>
<path d="M0 0 C0 0.33 0 0.66 0 1 C-6.0018137 1.21824777 -11.19233704 0.5056904 -17 -1 C-17 -1.33 -17 -1.66 -17 -2 C-10.6447755 -3.5197276 -6.08291273 -2.1663492 0 0 Z " fill="#909AA1" transform="translate(204,239)"/>
<path d="M0 0 C5.06998019 0.65419099 9.41990777 2.8546409 14 5 C13.01 5.66 12.02 6.32 11 7 C8.3125 6.125 8.3125 6.125 6 5 C6 4.34 6 3.68 6 3 C5.01 3.33 4.02 3.66 3 4 C1.97895449 3.02149805 0.9793879 2.02019573 0 1 C0 0.67 0 0.34 0 0 Z " fill="#8A959E" transform="translate(192,174)"/>
<path d="M0 0 C2.475 0.99 2.475 0.99 5 2 C4.67 3.65 4.34 5.3 4 7 C4.66 7.33 5.32 7.66 6 8 C5.34 8.66 4.68 9.32 4 10 C0 3.375 0 3.375 0 0 Z " fill="#869098" transform="translate(169,208)"/>
<path d="M0 0 C1.32 0.66 2.64 1.32 4 2 C2.73581754 2.69965443 1.46334598 3.38434763 0.1875 4.0625 C-0.52019531 4.44535156 -1.22789062 4.82820313 -1.95703125 5.22265625 C-4 6 -4 6 -7 5 C-6.401875 4.731875 -5.80375 4.46375 -5.1875 4.1875 C-3.02775192 3.01506533 -1.64209744 1.80630718 0 0 Z " fill="#9DA9B0" transform="translate(179,329)"/>
<path d="M0 0 C2.64 0.99 5.28 1.98 8 3 C6.68 3.99 5.36 4.98 4 6 C3.34 5.67 2.68 5.34 2 5 C2 4.01 2 3.02 2 2 C1.34 2 0.68 2 0 2 C0 1.34 0 0.68 0 0 Z " fill="#7E8793" transform="translate(211,182)"/>
<path d="M0 0 C2.64 0.33 5.28 0.66 8 1 C5.37801226 3.15377564 3.35595828 4.40072174 0 5 C0.33 4.01 0.66 3.02 1 2 C0.67 1.34 0.34 0.68 0 0 Z " fill="#8B949F" transform="translate(164,334)"/>
<path d="M0 0 C1.32 0.66 2.64 1.32 4 2 C1.1875 3.5625 1.1875 3.5625 -2 5 C-2.99 4.67 -3.98 4.34 -5 4 C-4.67 3.34 -4.34 2.68 -4 2 C-2.68 2 -1.36 2 0 2 C0 1.34 0 0.68 0 0 Z " fill="#9098A1" transform="translate(188,325)"/>
<path d="M0 0 C0.66 1.32 1.32 2.64 2 4 C1.360625 4.28875 0.72125 4.5775 0.0625 4.875 C-2.15206079 5.82823451 -2.15206079 5.82823451 -3 8 C-2.37240135 5.07120629 -1.41377341 2.63904371 0 0 Z " fill="#939EAA" transform="translate(155,318)"/>
<path d="M0 0 C1.32 0.66 2.64 1.32 4 2 C3.34 3.32 2.68 4.64 2 6 C1.01 5.67 0.02 5.34 -1 5 C-0.67 3.35 -0.34 1.7 0 0 Z " fill="#2E404F" transform="translate(179,274)"/>
<path d="M0 0 C0.99 0.33 1.98 0.66 3 1 C3 3.64 3 6.28 3 9 C1.5 7.875 1.5 7.875 0 6 C-0.1875 2.8125 -0.1875 2.8125 0 0 Z " fill="#818C94" transform="translate(152,171)"/>
</svg>
