<?xml version="1.0" encoding="UTF-8"?>
<svg xmlns="http://www.w3.org/2000/svg" xmlns:xlink="http://www.w3.org/1999/xlink" width="48px" height="48px" viewBox="0 0 48 48" version="1.1">
<g id="surface1">
<path style=" stroke:none;fill-rule:nonzero;fill:rgb(93.333334%,93.725491%,94.509804%);fill-opacity:1;" d="M 31.390625 11.808594 C 31.492188 11.871094 31.492188 11.871094 31.59375 11.933594 C 32.550781 12.539062 33.546875 13.335938 34.273438 14.207031 C 34.273438 14.269531 34.273438 14.335938 34.273438 14.398438 C 34.367188 14.433594 34.460938 14.464844 34.558594 14.496094 C 34.734375 14.703125 34.734375 14.703125 34.921875 14.96875 C 34.988281 15.066406 35.054688 15.160156 35.125 15.261719 C 35.191406 15.355469 35.257812 15.453125 35.328125 15.550781 C 35.386719 15.632812 35.445312 15.714844 35.507812 15.796875 C 35.914062 16.363281 36.261719 16.945312 36.574219 17.566406 C 36.617188 17.644531 36.65625 17.726562 36.699219 17.804688 C 37.304688 19.054688 37.644531 20.367188 37.859375 21.730469 C 37.882812 21.882812 37.882812 21.882812 37.910156 22.039062 C 38.160156 23.777344 38.160156 23.777344 37.921875 24.574219 C 38.257812 24.332031 38.257812 24.332031 38.496094 24 C 38.558594 24 38.621094 24 38.6875 24 C 38.707031 23.945312 38.722656 23.890625 38.742188 23.832031 C 38.945312 23.511719 39.203125 23.359375 39.550781 23.230469 C 40.019531 23.15625 40.453125 23.167969 40.882812 23.382812 C 41.433594 23.808594 41.597656 24.253906 41.683594 24.921875 C 41.628906 25.5625 41.261719 26.007812 40.847656 26.464844 C 40.773438 26.554688 40.773438 26.554688 40.695312 26.640625 C 40.316406 27.070312 39.933594 27.488281 39.546875 27.90625 C 39.265625 28.210938 38.996094 28.523438 38.734375 28.847656 C 38.417969 29.238281 38.097656 29.625 37.765625 30 C 37.679688 30.09375 37.597656 30.1875 37.515625 30.285156 C 37.160156 30.609375 36.828125 30.792969 36.339844 30.835938 C 35.0625 30.667969 34.371094 29.511719 33.628906 28.554688 C 33.304688 28.140625 32.96875 27.734375 32.621094 27.335938 C 31.164062 25.648438 31.164062 25.648438 31.171875 24.519531 C 31.207031 24.109375 31.285156 23.90625 31.585938 23.617188 C 32.046875 23.265625 32.402344 23.167969 32.984375 23.195312 C 33.472656 23.273438 33.785156 23.503906 34.121094 23.867188 C 34.273438 24.097656 34.273438 24.097656 34.273438 24.289062 C 34.398438 24.351562 34.527344 24.414062 34.65625 24.480469 C 34.65625 24.542969 34.65625 24.605469 34.65625 24.671875 C 34.71875 24.671875 34.78125 24.671875 34.847656 24.671875 C 34.832031 24.617188 34.816406 24.5625 34.800781 24.507812 C 34.753906 24.289062 34.726562 24.082031 34.710938 23.855469 C 34.628906 22.859375 34.53125 21.894531 34.273438 20.929688 C 34.242188 20.816406 34.210938 20.703125 34.179688 20.585938 C 33.855469 19.503906 33.339844 18.4375 32.660156 17.53125 C 32.542969 17.375 32.542969 17.375 32.542969 17.183594 C 32.480469 17.183594 32.417969 17.183594 32.351562 17.183594 C 32.222656 17.03125 32.097656 16.875 31.972656 16.714844 C 31.105469 15.636719 30.09375 14.882812 28.894531 14.207031 C 28.835938 14.175781 28.777344 14.140625 28.71875 14.109375 C 28.167969 13.8125 27.589844 13.640625 26.992188 13.46875 C 26.894531 13.441406 26.800781 13.410156 26.699219 13.378906 C 24.359375 12.699219 21.667969 12.957031 19.488281 14.015625 C 19.398438 14.058594 19.308594 14.097656 19.214844 14.140625 C 17.144531 15.125 15.40625 16.851562 14.398438 18.910156 C 14.359375 18.984375 14.316406 19.054688 14.277344 19.128906 C 12.921875 21.570312 12.9375 24.546875 13.632812 27.167969 C 13.832031 27.804688 14.085938 28.410156 14.386719 29.003906 C 14.421875 29.070312 14.453125 29.136719 14.488281 29.203125 C 14.921875 30.039062 15.445312 30.746094 16.054688 31.460938 C 16.222656 31.679688 16.222656 31.679688 16.222656 31.871094 C 16.308594 31.910156 16.308594 31.910156 16.394531 31.945312 C 16.625 32.074219 16.777344 32.214844 16.96875 32.398438 C 17.367188 32.761719 17.789062 33.050781 18.246094 33.335938 C 18.308594 33.375 18.371094 33.414062 18.4375 33.457031 C 19.117188 33.871094 19.785156 34.203125 20.550781 34.429688 C 20.613281 34.449219 20.679688 34.46875 20.746094 34.488281 C 20.871094 34.527344 21 34.5625 21.128906 34.601562 C 21.296875 34.652344 21.460938 34.707031 21.625 34.761719 C 22.21875 34.90625 22.824219 34.917969 23.433594 34.949219 C 24.179688 34.996094 24.753906 35.109375 25.289062 35.671875 C 25.605469 36.164062 25.605469 36.679688 25.535156 37.246094 C 25.375 37.679688 25.160156 37.945312 24.78125 38.203125 C 22.558594 38.957031 19.5625 37.816406 17.566406 36.863281 C 16.652344 36.394531 15.84375 35.816406 15.070312 35.136719 C 14.984375 35.058594 14.898438 34.984375 14.8125 34.90625 C 14.574219 34.699219 14.34375 34.484375 14.113281 34.273438 C 14.058594 34.222656 14.003906 34.171875 13.945312 34.117188 C 13.835938 34.011719 13.734375 33.902344 13.632812 33.792969 C 13.632812 33.730469 13.632812 33.664062 13.632812 33.601562 C 13.535156 33.566406 13.441406 33.535156 13.34375 33.503906 C 13.167969 33.292969 13.003906 33.082031 12.847656 32.855469 C 12.800781 32.789062 12.753906 32.726562 12.703125 32.65625 C 12.5625 32.460938 12.425781 32.261719 12.289062 32.0625 C 12.21875 31.964844 12.148438 31.863281 12.078125 31.761719 C 10.90625 29.96875 10.28125 27.929688 9.984375 25.824219 C 9.957031 25.636719 9.957031 25.636719 9.929688 25.445312 C 9.542969 22.214844 10.375 18.589844 12.289062 15.9375 C 12.320312 15.871094 12.351562 15.808594 12.382812 15.742188 C 12.449219 15.742188 12.511719 15.742188 12.574219 15.742188 C 12.601562 15.675781 12.625 15.605469 12.652344 15.53125 C 12.773438 15.253906 12.914062 15.042969 13.105469 14.800781 C 13.164062 14.726562 13.222656 14.648438 13.28125 14.570312 C 13.332031 14.515625 13.386719 14.457031 13.441406 14.398438 C 13.503906 14.398438 13.566406 14.398438 13.632812 14.398438 C 13.65625 14.34375 13.679688 14.289062 13.703125 14.234375 C 14.84375 12.160156 17.890625 10.8125 20.039062 10.160156 C 20.9375 9.902344 21.824219 9.777344 22.753906 9.695312 C 22.859375 9.683594 22.964844 9.671875 23.074219 9.660156 C 25.90625 9.375 29.054688 10.179688 31.390625 11.808594 Z M 31.390625 11.808594 "/>
<path style=" stroke:none;fill-rule:nonzero;fill:rgb(33.725491%,36.862746%,42.745098%);fill-opacity:1;" d="M 26.113281 9.792969 C 26.113281 9.824219 26.113281 9.855469 26.113281 9.886719 C 25.929688 9.890625 25.929688 9.890625 25.746094 9.890625 C 25.289062 9.898438 24.835938 9.90625 24.382812 9.914062 C 24.183594 9.917969 23.988281 9.917969 23.792969 9.921875 C 22.382812 9.9375 21.125 10.050781 19.785156 10.515625 C 19.554688 10.566406 19.421875 10.527344 19.199219 10.464844 C 20.386719 10.074219 21.507812 9.792969 22.753906 9.695312 C 22.859375 9.683594 22.964844 9.671875 23.074219 9.660156 C 24.066406 9.558594 25.136719 9.566406 26.113281 9.792969 Z M 26.113281 9.792969 "/>
<path style=" stroke:none;fill-rule:nonzero;fill:rgb(27.843139%,30.588236%,36.862746%);fill-opacity:1;" d="M 37.054688 19.007812 C 37.988281 19.941406 38.023438 22.476562 38.046875 23.722656 C 38.042969 24.066406 37.996094 24.28125 37.824219 24.574219 C 37.820312 24.429688 37.820312 24.429688 37.8125 24.277344 C 37.730469 21.890625 37.730469 21.890625 37.128906 19.601562 C 37.054688 19.390625 37.054688 19.390625 37.054688 19.007812 Z M 37.054688 19.007812 "/>
<path style=" stroke:none;fill-rule:nonzero;fill:rgb(31.37255%,34.117648%,39.215687%);fill-opacity:1;" d="M 40.722656 23.320312 C 40.90625 23.425781 40.90625 23.425781 41.183594 23.617188 C 41.152344 23.679688 41.121094 23.742188 41.089844 23.808594 C 41.039062 23.78125 40.992188 23.753906 40.945312 23.722656 C 40.5 23.480469 40.167969 23.34375 39.648438 23.425781 C 39.515625 23.546875 39.390625 23.675781 39.265625 23.808594 C 39.105469 23.941406 38.941406 24.070312 38.777344 24.199219 C 38.449219 24.453125 38.449219 24.453125 38.148438 24.742188 C 38.015625 24.863281 38.015625 24.863281 37.726562 24.863281 C 37.777344 24.722656 37.777344 24.722656 37.824219 24.574219 C 37.953125 24.511719 38.078125 24.449219 38.207031 24.382812 C 38.304688 24.257812 38.402344 24.128906 38.496094 24 C 38.558594 24 38.621094 24 38.6875 24 C 38.714844 23.917969 38.714844 23.917969 38.742188 23.832031 C 39.164062 23.171875 40.027344 23.03125 40.722656 23.320312 Z M 40.722656 23.320312 "/>
<path style=" stroke:none;fill-rule:nonzero;fill:rgb(50.196081%,53.333336%,57.647061%);fill-opacity:1;" d="M 15.265625 12.671875 C 15.328125 12.703125 15.390625 12.734375 15.457031 12.769531 C 15.339844 12.894531 15.339844 12.894531 15.21875 13.023438 C 15.113281 13.136719 15.007812 13.25 14.902344 13.363281 C 14.851562 13.417969 14.800781 13.472656 14.746094 13.53125 C 14.519531 13.777344 14.300781 14.023438 14.09375 14.289062 C 13.871094 14.550781 13.671875 14.605469 13.34375 14.6875 C 13.390625 14.546875 13.390625 14.546875 13.441406 14.398438 C 13.503906 14.398438 13.566406 14.398438 13.632812 14.398438 C 13.652344 14.347656 13.675781 14.292969 13.699219 14.238281 C 13.859375 13.957031 14.054688 13.761719 14.285156 13.535156 C 14.367188 13.453125 14.449219 13.375 14.535156 13.289062 C 14.769531 13.070312 15.011719 12.867188 15.265625 12.671875 Z M 15.265625 12.671875 "/>
<path style=" stroke:none;fill-rule:nonzero;fill:rgb(48.627451%,52.156866%,56.470591%);fill-opacity:1;" d="M 12.960938 15.070312 C 12.960938 15.496094 12.75 15.789062 12.535156 16.144531 C 12.476562 16.246094 12.476562 16.246094 12.414062 16.347656 C 12.289062 16.511719 12.289062 16.511719 12 16.609375 C 12.113281 16.3125 12.238281 16.027344 12.382812 15.742188 C 12.449219 15.742188 12.511719 15.742188 12.574219 15.742188 C 12.605469 15.667969 12.632812 15.59375 12.660156 15.515625 C 12.769531 15.265625 12.769531 15.265625 12.960938 15.070312 Z M 12.960938 15.070312 "/>
<path style=" stroke:none;fill-rule:nonzero;fill:rgb(37.64706%,40.784314%,45.882353%);fill-opacity:1;" d="M 15.070312 30.433594 C 15.328125 30.6875 15.585938 30.945312 15.839844 31.199219 C 15.808594 31.261719 15.777344 31.328125 15.742188 31.390625 C 15.429688 31.21875 15.273438 31.121094 15.070312 30.816406 C 15.070312 30.6875 15.070312 30.5625 15.070312 30.433594 Z M 15.070312 30.433594 "/>
</g>
</svg>
